<?xml version="1.0" encoding="UTF-8"?>
<svg id="Layer_1" xmlns="http://www.w3.org/2000/svg" version="1.1" viewBox="0 0 453 160">
  <!-- Generator: Adobe Illustrator 30.0.0, SVG Export Plug-In . SVG Version: 2.1.1 Build 123)  -->
  <defs>
    <style>
      .st0 {
        fill: #fbf2ec;
        fill-rule: evenodd;
        stroke: #dbaf88;
        stroke-width: 2px;
      }

      .st1, .st2 {
        isolation: isolate;
      }

      .st2 {
        fill: #af6e24;
        font-family: PTMono-Regular, 'PT Mono';
        font-size: 14px;
      }

      .st3 {
        fill: #c06334;
      }
    </style>
  </defs>
  <g id="inheritance">
    <g id="proto-constructor-animal-rabbit.svg">
      <path id="Rectangle-1" class="st0" d="M233,23h187v28h-187v-28Z"/>
      <g id="eats:-true" class="st1">
        <text class="st2" transform="translate(243 42)"><tspan x="0" y="0">eats: true</tspan></text>
      </g>
      <path id="Rectangle-1-Copy" class="st0" d="M233,124h187v28h-187v-28Z"/>
      <g id="name:-_x22_White-Rabbit_x22_" class="st1">
        <text class="st2" transform="translate(246 143)"><tspan x="0" y="0">name: &quot;Hvid kanin&quot;</tspan></text>
      </g>
      <g id="animal" class="st1">
        <text class="st2" transform="translate(232 15)"><tspan x="0" y="0">animal</tspan></text>
      </g>
      <path id="Rectangle-1-Copy-2" class="st0" d="M10,23h99v28H10v-28Z"/>
      <g id="Rabbit" class="st1">
        <text class="st2" transform="translate(9 15)"><tspan x="0" y="0">Rabbit</tspan></text>
      </g>
      <g id="rabbit" class="st1">
        <text class="st2" transform="translate(238 113)"><tspan x="0" y="0">rabbit</tspan></text>
      </g>
      <path id="Line" class="st3" d="M321.5,68.5l7,14h-6v28h-2v-28h-6l7-14Z"/>
      <path id="Line-Copy" class="st3" d="M208,27l14,7-14,7v-6h-81v-2h81v-6Z"/>
      <g id="_x5B__x5B_Prototype_x5D__x5D_" class="st1">
        <text class="st2" transform="translate(331 92)"><tspan x="0" y="0">[[Prototype]]</tspan></text>
      </g>
      <g id="prototype" class="st1">
        <text class="st2" transform="translate(134 22)"><tspan x="0" y="0">prototype</tspan></text>
      </g>
    </g>
  </g>
</svg>