<?xml version="1.0" encoding="UTF-8"?>
<svg id="Layer_1" xmlns="http://www.w3.org/2000/svg" version="1.1" viewBox="0 0 458 260">
  <!-- Generator: Adobe Illustrator 30.0.0, SVG Export Plug-In . SVG Version: 2.1.1 Build 123)  -->
  <defs>
    <style>
      .st0 {
        fill: #7e7c7b;
      }

      .st1, .st2 {
        isolation: isolate;
      }

      .st3 {
        fill: none;
        stroke: #c06334;
        stroke-linecap: square;
        stroke-width: 3px;
      }

      .st4 {
        fill: #1c85b5;
      }

      .st2 {
        fill: #af6e24;
        font-family: PTMono-Regular, 'PT Mono';
        font-size: 14px;
      }

      .st5 {
        fill: #181717;
      }

      .st6 {
        fill: #c06334;
      }

      .st7 {
        fill: #dbaf88;
      }
    </style>
  </defs>
  <g id="combined">
    <g id="decorator-makecaching-wrapper.svg">
      <g id="function-cachingDeco">
        <path id="function" class="st4" d="M17.64,15.63c-.62-.13-1.16-.2-1.61-.2-1.07,0-1.61.56-1.61,1.68v1.2h3.01v.99h-3.01v4.87h-1.21v-4.87h-2.21v-.99h2.21v-1.13c0-1.83.95-2.74,2.86-2.74.47,0,1,.05,1.57.16v1.02h0ZM24.76,24.18h-1.07l-.04-1.11c-.18.21-.38.41-.59.59-.17.15-.35.27-.55.38-.17.09-.36.16-.55.2-.19.04-.39.06-.59.06-.71,0-1.24-.21-1.6-.62-.36-.41-.54-1.04-.54-1.88v-4.48h1.19v4.39c0,1.05.4,1.58,1.19,1.58.15,0,.29-.02.43-.06.14-.04.28-.12.44-.23.15-.11.32-.25.49-.43.18-.18.37-.41.59-.69v-4.56h1.19v6.86h0ZM26.94,17.32h1.06l.05,1.11c.2-.24.39-.43.58-.59.19-.16.37-.28.55-.38.17-.09.36-.16.55-.2.19-.04.38-.06.58-.06.71,0,1.24.21,1.6.63.36.42.54,1.04.54,1.88v4.48h-1.19v-4.38c0-.54-.1-.94-.3-1.19-.2-.26-.5-.39-.9-.39-.15,0-.29.02-.43.07-.16.05-.3.13-.43.22-.15.11-.31.25-.49.43-.17.18-.37.41-.59.68v4.55h-1.19v-6.86ZM39.97,23.93c-.31.12-.63.21-.95.26-.33.06-.67.09-1.01.09-1.09,0-1.92-.29-2.51-.88-.58-.59-.88-1.45-.88-2.58,0-.54.08-1.03.25-1.48s.41-.82.71-1.14c.31-.31.67-.56,1.09-.73.42-.17.89-.26,1.4-.26.35,0,.69.03,1,.08s.61.13.89.25v1.13c-.29-.15-.59-.27-.91-.34-.31-.07-.63-.11-.95-.11-.31,0-.59.06-.86.18-.27.12-.51.28-.72.5-.21.23-.38.5-.49.8-.12.31-.18.67-.18,1.07,0,.83.2,1.45.6,1.86s.96.62,1.68.62c.63,0,1.26-.15,1.82-.44v1.11h0ZM47.87,24.08c-.27.07-.55.12-.83.15-.29.03-.58.04-.88.04-.86,0-1.5-.19-1.93-.58-.42-.39-.63-.99-.63-1.79v-3.58h-1.92v-1h1.92v-1.89l1.19-.31v2.19h3.08v1h-3.08v3.49c0,.49.13.86.39,1.1s.65.37,1.16.37c.22,0,.46-.02.72-.05s.53-.09.81-.16v1.02ZM52.37,18.3h-2.03v-.99h3.23v5.87h2.04v.99h-5.5v-.99h2.26s0-4.89,0-4.89ZM52.79,14.44c.13,0,.26.02.37.07.11.05.21.12.3.2.18.18.27.41.27.66,0,.25-.1.49-.27.66-.08.09-.19.16-.3.2-.12.05-.24.07-.37.07-.13,0-.25-.02-.37-.07-.11-.05-.21-.12-.3-.2-.17-.18-.27-.42-.27-.66,0-.25.09-.49.27-.66.08-.09.19-.16.3-.2.12-.05.24-.07.37-.07h0ZM63.7,20.69c0,.5-.07.99-.23,1.47-.15.44-.37.82-.65,1.14-.29.32-.64.57-1.03.74-.44.18-.91.27-1.38.26-.49,0-.93-.08-1.32-.23-.38-.14-.72-.38-.99-.67-.28-.32-.5-.69-.62-1.1-.14-.44-.22-.94-.22-1.51,0-.53.08-1.02.22-1.46.15-.44.37-.82.65-1.14.29-.32.64-.57,1.03-.74.44-.18.91-.27,1.38-.26.49,0,.93.08,1.32.23.39.15.72.38.99.67.27.29.48.66.62,1.1.14.44.22.94.22,1.5ZM62.49,20.75c0-.42-.05-.79-.14-1.11-.08-.29-.21-.56-.4-.79-.17-.21-.39-.37-.63-.48-.26-.11-.55-.16-.83-.16-.36,0-.66.07-.91.21-.25.14-.46.32-.62.56-.17.25-.29.52-.36.81-.08.32-.11.64-.11.97,0,.42.05.8.14,1.11.09.32.23.59.4.8.17.21.38.37.63.48.24.11.52.16.83.16.36,0,.66-.07.91-.21s.46-.32.62-.56c.17-.25.29-.52.35-.81.08-.32.11-.65.11-.97ZM65.43,17.32h1.06l.05,1.11c.2-.24.39-.43.58-.59.19-.16.37-.28.55-.38.17-.09.36-.16.55-.2.19-.04.38-.06.58-.06.71,0,1.24.21,1.6.63.36.42.54,1.04.54,1.88v4.48h-1.19v-4.38c0-.54-.1-.94-.3-1.19s-.5-.39-.9-.39c-.15,0-.29.02-.43.07-.16.05-.3.13-.43.22-.15.11-.31.25-.49.43-.17.18-.37.41-.59.68v4.55h-1.19s0-6.86,0-6.86Z"/>
        <path id="cachingDecorator" class="st5" d="M86.15,23.93c-.31.12-.63.21-.95.26-.33.06-.67.09-1.01.09-1.08,0-1.92-.29-2.5-.88-.59-.59-.88-1.45-.88-2.58,0-.54.08-1.03.25-1.48.17-.44.4-.82.71-1.14.31-.31.67-.56,1.09-.73.42-.17.89-.26,1.4-.26.36,0,.69.03,1,.08s.61.13.89.25v1.13c-.29-.15-.59-.27-.9-.34-.31-.07-.63-.11-.95-.11-.31,0-.59.06-.86.18-.27.12-.51.28-.71.5-.21.23-.38.5-.49.8-.12.31-.18.67-.18,1.07,0,.83.2,1.45.61,1.86.4.41.96.62,1.68.62.63,0,1.26-.15,1.82-.44,0,0,0,1.11,0,1.11ZM92.93,24.18l-.03-.92c-.37.37-.75.64-1.14.8-.39.16-.79.25-1.21.25-.39,0-.73-.05-1-.15-.26-.09-.49-.23-.69-.41-.18-.17-.31-.38-.4-.62-.09-.25-.13-.51-.13-.77,0-.69.26-1.23.77-1.62s1.27-.58,2.27-.58h1.42v-.6c0-.41-.13-.73-.39-.97s-.66-.37-1.19-.37c-.39,0-.77.04-1.14.13s-.76.21-1.17.37v-1.07c.35-.13.72-.23,1.09-.3.21-.04.43-.08.64-.1.22-.03.45-.04.68-.04.42,0,.79.05,1.12.14.33.09.61.23.84.42s.41.42.53.7c.12.28.18.62.18,1v4.73h-1.07ZM92.8,21.05h-1.51c-.3,0-.55.03-.77.09-.21.06-.39.14-.53.25-.14.11-.24.24-.3.39-.07.15-.1.32-.1.52,0,.13.02.26.06.38.04.12.11.23.2.32.09.09.21.17.36.22.15.05.32.08.53.08.27,0,.59-.08.94-.25.35-.17.73-.43,1.12-.79,0,0,0-1.22,0-1.22ZM101.55,23.92c-.31.12-.63.21-.95.26-.33.06-.67.09-1.01.09-1.08,0-1.92-.29-2.5-.88-.59-.59-.88-1.45-.88-2.58,0-.54.08-1.03.25-1.48s.41-.82.71-1.14c.31-.31.67-.56,1.09-.73.42-.17.89-.26,1.4-.26.36,0,.69.03,1,.08s.61.13.89.25v1.13c-.29-.15-.59-.27-.91-.34-.31-.07-.63-.11-.95-.11-.31,0-.59.06-.86.18-.27.12-.51.28-.71.5-.21.23-.38.5-.49.8-.12.31-.18.67-.18,1.07,0,.83.2,1.45.61,1.86.4.41.96.62,1.68.62.63,0,1.26-.15,1.82-.44v1.11h0ZM109.43,24.18h-1.19v-4.38c0-.53-.1-.92-.3-1.19s-.48-.39-.85-.39c-.16,0-.31.02-.45.07-.16.05-.3.13-.43.22-.18.13-.34.28-.49.43-.18.18-.38.41-.61.68v4.55h-1.19v-9.66h1.19v2.8l-.04,1.08c.19-.22.37-.41.55-.56.18-.15.36-.28.54-.37s.36-.16.55-.2c.19-.04.38-.06.58-.06.68,0,1.21.21,1.59.63.37.42.56,1.04.56,1.88v4.48h0ZM113.95,18.3h-2.03v-.98h3.23v5.87h2.04v.99h-5.5v-.99h2.26v-4.89h0ZM114.37,14.44c.13,0,.25.02.37.07.11.05.21.12.3.2.18.18.27.41.27.66,0,.25-.1.49-.27.66-.08.09-.19.16-.3.2-.12.05-.24.07-.37.07-.13,0-.25-.02-.37-.07-.11-.05-.21-.12-.3-.2-.17-.18-.27-.42-.27-.66,0-.25.09-.49.27-.66.08-.09.19-.16.3-.2.12-.05.24-.07.37-.07h0ZM119.31,17.31h1.06l.05,1.11c.2-.24.39-.43.58-.59.19-.16.37-.28.55-.38.17-.09.36-.16.55-.2.19-.04.38-.06.58-.06.71,0,1.24.21,1.6.63.36.42.54,1.04.54,1.88v4.48h-1.19v-4.38c0-.54-.1-.94-.3-1.19-.2-.26-.5-.39-.9-.39-.14,0-.29.02-.43.07-.16.05-.3.13-.43.22-.15.11-.31.25-.49.43-.18.18-.37.41-.59.68v4.55h-1.19v-6.86h0ZM131.95,18.29c.13.16.23.34.3.56.07.21.11.44.11.69,0,.36-.07.68-.19.97s-.31.55-.55.76c-.25.22-.54.38-.85.49-.33.12-.69.17-1.09.17-.29,0-.56-.03-.81-.09-.21-.05-.41-.12-.59-.23-.09.13-.16.25-.22.36-.06.12-.09.25-.09.38,0,.17.08.32.25.43.17.11.39.18.66.19l1.8.07c.34.01.66.05.95.13.29.08.54.19.75.34.21.15.37.33.49.54s.17.46.17.74c0,.31-.07.6-.2.87-.14.29-.35.53-.61.72-.28.21-.62.37-1.05.49s-.93.19-1.51.19-1.03-.05-1.42-.13c-.39-.09-.71-.21-.96-.37-.23-.13-.42-.33-.55-.56-.12-.22-.17-.47-.17-.72,0-.33.08-.62.23-.88.15-.25.39-.49.72-.72-.22-.1-.4-.27-.52-.48-.11-.19-.16-.41-.16-.63,0-.3.07-.57.21-.81.14-.25.3-.48.5-.7-.08-.1-.16-.2-.23-.31-.14-.21-.23-.45-.28-.7-.03-.15-.04-.31-.04-.46,0-.36.06-.68.19-.97s.31-.55.55-.76c.24-.21.52-.37.85-.49.33-.12.7-.17,1.1-.17.17,0,.33.01.49.04.15.02.29.05.41.09h2.49v.97h-1.1ZM127.82,25.17c0,.32.17.56.51.71.34.15.81.22,1.41.22.38,0,.7-.03.95-.1.26-.07.46-.16.62-.27.16-.11.27-.24.34-.38.07-.14.1-.29.1-.44,0-.28-.11-.48-.34-.62-.23-.13-.58-.21-1.05-.23l-1.79-.06c-.15.1-.28.2-.37.29-.09.09-.17.18-.23.29-.05.09-.09.19-.11.3-.02.1-.03.2-.04.3h0ZM128.18,19.56c0,.22.04.42.11.6.07.18.18.34.31.47.13.13.29.23.47.3.18.07.38.11.6.11.24,0,.45-.04.63-.12.18-.08.34-.19.46-.32.13-.14.22-.29.29-.47.07-.18.1-.36.1-.55,0-.22-.04-.42-.11-.6-.07-.18-.17-.33-.31-.47-.13-.13-.29-.23-.47-.3-.18-.07-.38-.11-.6-.11-.24,0-.45.04-.63.12-.18.08-.34.19-.46.32-.12.13-.22.29-.29.47s-.1.36-.1.55h0ZM140.81,19.61c0,.43-.03.84-.1,1.23-.06.38-.17.74-.32,1.1-.14.33-.33.64-.57.92-.24.28-.53.52-.85.71-.34.2-.73.35-1.18.45-.45.11-.96.16-1.52.16h-1.92v-8.93h2.3c1.39,0,2.44.36,3.12,1.08.69.72,1.03,1.82,1.03,3.29h0ZM139.53,19.7c0-.63-.06-1.17-.18-1.61-.12-.44-.3-.79-.54-1.06-.25-.27-.56-.47-.91-.58-.36-.12-.79-.18-1.29-.18h-1.05v6.86h.91c2.03,0,3.05-1.14,3.05-3.43h0ZM148.2,20.38c0,.17,0,.31,0,.42,0,.11-.01.21-.02.32h-4.82c0,.7.2,1.24.59,1.62.39.38.96.56,1.7.56.2,0,.4,0,.6-.02.2-.02.4-.04.58-.06.19-.03.37-.06.54-.09.17-.03.33-.07.48-.11v.98c-.77.21-1.57.31-2.37.31-.59,0-1.09-.08-1.52-.24-.4-.14-.76-.38-1.04-.69-.28-.32-.49-.7-.6-1.11-.14-.49-.2-.99-.2-1.49,0-.48.07-.94.21-1.37.13-.41.34-.8.61-1.14.27-.33.59-.58.98-.78.41-.2.86-.3,1.32-.29.48,0,.9.08,1.27.23.37.15.68.36.93.64.25.28.45.61.57,1,.13.39.2.84.2,1.32h0ZM146.96,20.21c.02-.28-.01-.57-.09-.84-.07-.24-.18-.46-.34-.65-.16-.18-.35-.33-.57-.43-.25-.11-.52-.16-.79-.15-.26,0-.5.05-.71.15s-.4.24-.55.42c-.16.2-.29.42-.38.66-.1.27-.16.55-.18.84h3.61ZM155.43,23.93c-.31.12-.63.21-.95.26-.33.06-.67.09-1.01.09-1.09,0-1.92-.29-2.51-.88-.59-.59-.88-1.45-.88-2.58,0-.54.08-1.03.25-1.48s.41-.82.71-1.14c.31-.31.67-.56,1.1-.73.42-.17.89-.26,1.4-.26.35,0,.69.03,1,.08s.61.13.89.25v1.13c-.29-.15-.59-.27-.91-.34-.31-.07-.63-.11-.95-.11-.3,0-.59.06-.86.18-.27.12-.51.28-.71.5-.21.23-.38.5-.49.8-.12.31-.18.67-.18,1.07,0,.83.2,1.45.6,1.86s.96.62,1.68.62c.63,0,1.26-.15,1.82-.44v1.11h0ZM163.77,20.69c0,.5-.07.99-.23,1.47-.15.44-.37.82-.65,1.14-.29.32-.64.57-1.03.74-.44.18-.91.27-1.38.26-.49,0-.93-.08-1.32-.23-.38-.14-.72-.37-.99-.67-.28-.32-.5-.69-.62-1.1-.14-.44-.21-.94-.21-1.51,0-.53.07-1.02.23-1.46.15-.44.37-.82.65-1.14.29-.32.64-.57,1.03-.74.44-.18.91-.27,1.38-.26.49,0,.93.08,1.32.23.39.15.72.38.99.67.27.29.48.66.62,1.1.14.44.22.94.22,1.5ZM162.55,20.75c0-.42-.05-.79-.14-1.11-.08-.29-.21-.56-.4-.79-.17-.21-.39-.37-.63-.48-.26-.11-.55-.16-.83-.16-.36,0-.66.07-.91.21-.25.14-.46.32-.62.56-.17.25-.29.52-.35.81-.08.32-.11.64-.11.97,0,.42.05.8.14,1.11.09.32.23.59.4.8.17.21.38.37.63.48.25.11.52.16.83.16.35,0,.66-.07.91-.21.25-.14.46-.32.62-.56.17-.25.29-.52.36-.81.08-.32.11-.65.11-.97h0ZM165.77,17.31h1.09l.04,1.27c.4-.49.8-.84,1.2-1.06.36-.21.77-.32,1.19-.33.71,0,1.25.23,1.62.69.37.46.54,1.14.51,2.05h-1.2c.01-.6-.07-1.04-.26-1.31-.19-.27-.47-.41-.83-.41-.16,0-.32.03-.48.09-.18.07-.35.16-.5.27-.19.15-.38.31-.54.48-.22.23-.42.46-.62.71v4.41h-1.2v-6.86h0ZM177.6,24.18l-.03-.92c-.37.37-.75.64-1.14.8-.38.16-.79.25-1.21.25-.39,0-.73-.05-1.01-.15-.26-.09-.49-.23-.69-.41-.18-.17-.31-.38-.4-.62-.09-.25-.13-.51-.13-.77,0-.69.26-1.23.77-1.62s1.27-.58,2.27-.58h1.42v-.6c0-.41-.13-.73-.39-.97s-.66-.37-1.19-.37c-.39,0-.77.04-1.14.13-.38.09-.76.21-1.17.37v-1.07c.35-.13.72-.23,1.09-.3.21-.04.43-.08.64-.1.22-.03.45-.04.68-.04.41,0,.79.05,1.12.14.33.09.62.23.85.42s.41.42.53.7c.12.28.18.62.18,1v4.73h-1.07ZM177.47,21.05h-1.51c-.3,0-.55.03-.77.09-.21.06-.39.14-.53.25-.14.11-.24.24-.3.39-.07.15-.1.32-.1.52,0,.13.02.26.06.38.04.12.11.23.2.32.09.09.21.17.36.22.15.05.32.08.53.08.27,0,.59-.08.94-.25s.73-.43,1.12-.79v-1.22h0ZM186.42,24.08c-.27.07-.55.12-.83.15-.29.03-.58.04-.88.04-.86,0-1.5-.19-1.93-.58-.42-.39-.63-.99-.63-1.79v-3.58h-1.92v-1h1.92v-1.89l1.19-.31v2.19h3.08v1h-3.08v3.49c0,.49.13.86.39,1.1.26.24.65.37,1.16.37.22,0,.46-.02.72-.05.26-.03.53-.09.81-.16v1.02h0ZM194.56,20.69c0,.5-.07.99-.23,1.47-.15.44-.37.82-.65,1.14-.29.32-.64.57-1.03.74-.44.18-.91.27-1.38.26-.49,0-.93-.08-1.32-.23-.38-.14-.72-.38-.99-.67-.28-.32-.5-.69-.62-1.1-.14-.44-.21-.94-.21-1.51,0-.53.07-1.02.23-1.46.15-.44.37-.82.65-1.14.29-.32.64-.57,1.03-.74.44-.18.91-.27,1.38-.26.49,0,.93.08,1.32.23.39.15.72.38.99.67.27.29.48.66.62,1.1.14.44.22.94.22,1.5h0ZM193.34,20.75c0-.42-.05-.79-.14-1.11-.08-.29-.21-.56-.4-.79-.17-.21-.39-.37-.63-.48-.26-.11-.55-.16-.83-.16-.36,0-.66.07-.91.21-.25.14-.46.32-.62.56-.17.25-.29.52-.35.81-.08.32-.11.64-.11.97,0,.42.05.8.14,1.11.09.32.23.58.4.8.17.21.38.37.63.48.25.11.52.16.83.16.35,0,.66-.07.91-.21.25-.14.46-.32.62-.56.17-.25.29-.52.35-.81.08-.32.11-.65.11-.97h0ZM196.56,17.31h1.09l.04,1.27c.4-.49.8-.84,1.2-1.06.36-.21.77-.32,1.19-.33.71,0,1.25.23,1.62.69.37.46.54,1.14.51,2.05h-1.2c.01-.6-.07-1.04-.26-1.31-.19-.27-.47-.41-.83-.41-.16,0-.32.03-.48.09-.18.07-.35.16-.5.27-.19.15-.38.31-.54.48-.22.23-.42.46-.62.71v4.41h-1.2v-6.86Z"/>
        <path id="_x28_" class="st0" d="M208.09,27.05c-2.1-1.95-3.15-4.1-3.15-6.45,0-.55.05-1.1.17-1.65.11-.55.29-1.1.54-1.65.27-.58.6-1.14.98-1.65.41-.55.9-1.1,1.49-1.64l.69.7c-1.77,1.75-2.65,3.68-2.65,5.8,0,1.06.22,2.07.67,3.05.45.98,1.11,1.89,1.98,2.76l-.72.73Z"/>
        <path id="func" class="st5" d="M217.77,15.63c-.62-.13-1.16-.2-1.61-.2-1.07,0-1.61.56-1.61,1.68v1.2h3.01v.99h-3.01v4.87h-1.21v-4.87h-2.21v-.99h2.21v-1.13c0-1.83.95-2.74,2.86-2.74.47,0,1,.05,1.57.16v1.02h0ZM224.89,24.18h-1.07l-.04-1.11c-.18.21-.38.41-.59.59-.17.15-.35.27-.55.38-.17.09-.36.16-.55.2-.19.04-.39.06-.59.06-.71,0-1.24-.21-1.6-.62-.36-.41-.54-1.04-.54-1.88v-4.48h1.19v4.39c0,1.05.4,1.58,1.19,1.58.15,0,.29-.02.43-.06.14-.04.29-.12.44-.23.15-.11.32-.25.49-.43.21-.22.41-.45.59-.69v-4.56h1.19v6.86h0ZM227.07,17.32h1.06l.05,1.11c.2-.24.39-.43.58-.59.19-.16.37-.28.55-.38.17-.09.36-.16.55-.2.19-.04.38-.06.58-.06.71,0,1.24.21,1.6.63.36.42.54,1.04.54,1.88v4.48h-1.19v-4.38c0-.54-.1-.94-.3-1.19s-.5-.39-.9-.39c-.15,0-.29.02-.43.07-.16.05-.3.13-.43.22-.15.11-.31.25-.49.43-.18.18-.37.41-.59.68v4.55h-1.19v-6.86h0ZM240.1,23.93c-.31.12-.63.21-.95.26-.33.06-.67.09-1.01.09-1.09,0-1.92-.29-2.51-.88-.59-.59-.88-1.45-.88-2.58,0-.54.08-1.03.25-1.48.17-.44.4-.82.71-1.14.31-.31.67-.56,1.1-.73.42-.17.89-.26,1.4-.26.36,0,.69.03,1,.08s.61.13.89.25v1.13c-.29-.15-.59-.27-.91-.34-.31-.07-.63-.11-.95-.11-.3,0-.59.06-.87.18-.27.12-.51.28-.71.5-.21.23-.38.5-.49.8-.12.31-.18.67-.18,1.07,0,.83.2,1.45.6,1.86s.96.62,1.68.62c.63,0,1.26-.15,1.82-.44v1.11h0Z"/>
        <path id="_x29__x7B_" class="st0" d="M243.87,14c2.1,1.95,3.15,4.11,3.15,6.49,0,.49-.05,1-.15,1.53-.1.53-.27,1.07-.51,1.62-.26.59-.59,1.16-.97,1.69-.41.57-.92,1.14-1.54,1.72l-.69-.7c.89-.88,1.55-1.8,1.99-2.76.44-.96.66-1.96.66-3.01,0-2.17-.88-4.12-2.65-5.85,0,0,.72-.73.72-.73ZM262.9,26.98h-.51c-.88,0-1.53-.21-1.96-.62-.43-.41-.64-1.04-.64-1.88v-2.35c0-.2-.02-.4-.07-.6-.05-.17-.14-.32-.26-.45-.14-.13-.31-.23-.5-.28-.25-.07-.52-.1-.78-.09h-.29v-.95h.29c.33,0,.6-.03.81-.08.21-.05.37-.14.49-.25.12-.12.21-.26.25-.43.04-.17.07-.38.07-.61v-1.62c0-.38.05-.73.14-1.04.09-.31.24-.57.45-.79.21-.22.48-.38.81-.5.33-.12.74-.17,1.21-.17h.51v.96h-.4c-1.06,0-1.59.51-1.59,1.54v1.59c0,1.11-.48,1.74-1.44,1.88.97.1,1.46.72,1.46,1.87v2.34c0,1.04.52,1.57,1.57,1.57h.4v.96h0Z"/>
        <path id="let" class="st4" d="M29.28,32.5h-2.03v-.98h3.23v8.67h2.04v.99h-5.5v-.99h2.26v-7.69h0ZM40.44,37.39c0,.17,0,.31,0,.42,0,.11-.01.21-.02.32h-4.82c0,.7.2,1.24.59,1.62s.96.56,1.69.56c.2,0,.4,0,.6-.02.2-.02.39-.04.58-.07.19-.03.37-.06.54-.09.17-.03.33-.07.48-.11v.98c-.77.21-1.57.31-2.36.31-.59,0-1.09-.08-1.52-.24-.4-.14-.76-.38-1.04-.69-.28-.32-.49-.7-.6-1.11-.14-.49-.2-.99-.19-1.49,0-.48.07-.94.21-1.37.13-.41.34-.8.61-1.14.27-.33.59-.58.98-.78.41-.2.86-.3,1.32-.29.48,0,.9.08,1.27.23.37.15.68.36.93.64.25.27.44.61.57,1s.19.83.2,1.32ZM39.2,37.21c.02-.28-.01-.57-.09-.84-.07-.24-.18-.46-.34-.65-.15-.18-.35-.33-.57-.43-.25-.11-.52-.16-.79-.15-.26,0-.5.05-.71.15-.22.1-.4.24-.55.42-.16.2-.29.42-.38.66-.1.27-.16.55-.18.84h3.61,0ZM47.87,41.08c-.27.07-.55.12-.83.15-.29.03-.58.04-.88.04-.86,0-1.5-.19-1.93-.58-.42-.39-.63-.99-.63-1.79v-3.58h-1.92v-1h1.92v-1.89l1.19-.31v2.19h3.08v1h-3.08v3.49c0,.49.13.86.39,1.1s.65.37,1.16.37c.22,0,.46-.02.72-.05s.53-.09.81-.16v1.03Z"/>
        <path id="cache" class="st5" d="M63.06,40.93c-.31.12-.63.21-.95.26-.33.06-.67.09-1.01.08-1.08,0-1.92-.29-2.51-.88-.58-.59-.88-1.45-.88-2.58,0-.54.08-1.03.25-1.48.17-.44.4-.82.71-1.14.31-.31.67-.56,1.09-.73.42-.17.89-.26,1.4-.26.35,0,.69.02,1,.08.31.05.61.13.89.25v1.14c-.29-.15-.59-.27-.91-.34-.31-.07-.63-.11-.95-.11-.31,0-.59.06-.87.17-.27.12-.51.28-.71.5-.21.23-.38.5-.49.8-.12.31-.18.67-.18,1.07,0,.83.2,1.45.6,1.86s.96.62,1.68.62c.63,0,1.26-.15,1.82-.44v1.11h0ZM69.84,41.18l-.03-.92c-.37.37-.75.64-1.14.8s-.79.25-1.21.25c-.39,0-.73-.05-1.01-.15-.26-.09-.49-.23-.69-.41-.18-.17-.31-.38-.4-.62-.09-.25-.13-.51-.13-.77,0-.69.26-1.23.77-1.62.51-.39,1.27-.58,2.27-.58h1.42v-.6c0-.41-.13-.73-.39-.97s-.66-.37-1.19-.37c-.39,0-.77.04-1.14.13s-.76.21-1.17.37v-1.07c.35-.13.72-.23,1.09-.3.21-.04.43-.08.64-.1.22-.02.45-.04.68-.04.41,0,.79.05,1.12.14.33.09.62.23.85.42s.41.42.53.7c.12.28.18.61.18,1v4.73h-1.07ZM69.71,38.06h-1.51c-.3,0-.55.03-.77.09-.22.06-.39.14-.53.25-.14.11-.24.24-.3.39-.07.15-.1.32-.1.52,0,.13.02.26.06.38.04.12.11.23.2.32.09.09.21.17.35.22.15.05.32.08.53.08.27,0,.59-.08.94-.25.35-.17.73-.43,1.12-.79,0,0,0-1.22,0-1.22ZM78.46,40.92c-.31.12-.63.21-.95.26-.33.06-.67.09-1.01.08-1.08,0-1.92-.29-2.51-.88-.59-.59-.88-1.45-.88-2.58,0-.54.08-1.03.25-1.48.17-.44.41-.82.71-1.14.31-.31.67-.56,1.09-.73.42-.17.89-.26,1.4-.26.36,0,.69.02,1,.08.31.05.61.13.89.25v1.14c-.29-.15-.59-.27-.91-.34-.31-.07-.63-.11-.95-.11-.31,0-.59.06-.86.17-.27.12-.51.28-.71.5-.21.23-.38.5-.49.8-.12.31-.18.67-.18,1.07,0,.83.2,1.45.6,1.86.4.41.96.62,1.68.62.63,0,1.26-.15,1.82-.44v1.11h0ZM86.34,41.18h-1.19v-4.38c0-.53-.1-.92-.3-1.19-.2-.26-.48-.39-.85-.39-.16,0-.31.02-.45.07-.16.05-.3.13-.43.23-.18.13-.34.28-.49.43-.18.18-.38.41-.61.68v4.55h-1.19v-9.66h1.19v2.8l-.04,1.08c.19-.22.37-.41.55-.56s.36-.28.54-.37c.18-.1.36-.16.55-.2.19-.04.38-.06.58-.06.68,0,1.21.21,1.59.63.37.42.56,1.05.56,1.88v4.48h0ZM94.32,37.38c0,.17,0,.31,0,.42,0,.11-.01.21-.02.32h-4.82c0,.7.2,1.24.59,1.62s.96.56,1.69.56c.2,0,.4,0,.6-.02.2-.02.39-.04.58-.07.19-.03.36-.06.54-.09.17-.03.33-.07.47-.11v.98c-.77.21-1.57.31-2.36.31-.59,0-1.09-.08-1.52-.24-.4-.14-.76-.38-1.04-.69-.28-.32-.49-.7-.6-1.11-.14-.49-.2-.99-.19-1.49,0-.48.07-.94.21-1.37.13-.41.34-.8.61-1.14.27-.33.59-.58.98-.78.41-.2.86-.3,1.32-.29.48,0,.9.08,1.27.23.37.15.68.36.93.64.25.27.44.61.57,1s.19.83.19,1.32h0ZM93.08,37.21c.02-.28-.01-.57-.09-.84-.07-.24-.18-.46-.34-.65-.15-.18-.35-.33-.57-.43-.25-.11-.52-.16-.79-.15-.26,0-.5.05-.71.15-.21.1-.4.24-.56.42-.16.2-.29.42-.38.66-.1.27-.16.55-.18.84h3.61,0Z"/>
        <path id="_x3D_" class="st7" d="M109.61,36.76h-5.88v-1h5.88v1h0ZM109.61,39.14h-5.88v-1h5.88v1h0Z"/>
        <path id="new" class="st4" d="M119.31,34.32h1.06l.05,1.11c.2-.24.39-.43.58-.59.19-.16.37-.28.55-.38.17-.09.36-.16.55-.2.19-.04.38-.06.58-.06.71,0,1.24.21,1.6.63.36.42.54,1.05.54,1.88v4.48h-1.19v-4.38c0-.54-.1-.94-.3-1.19-.2-.26-.5-.39-.9-.39-.14,0-.29.02-.43.07-.16.05-.3.13-.43.23-.15.11-.31.25-.49.43-.18.18-.37.41-.59.68v4.55h-1.19v-6.86h0ZM132.8,37.39c0,.17,0,.31,0,.42,0,.11-.01.21-.02.32h-4.82c0,.7.2,1.24.59,1.62s.96.56,1.69.56c.2,0,.4,0,.6-.02.2-.02.39-.04.58-.07.19-.03.37-.06.54-.09.17-.03.33-.07.48-.11v.98c-.77.21-1.57.31-2.36.31-.59,0-1.09-.08-1.52-.24-.4-.14-.76-.38-1.04-.69-.28-.32-.49-.7-.6-1.11-.14-.49-.2-.99-.19-1.49,0-.48.07-.94.21-1.37.13-.41.34-.8.61-1.14.27-.33.59-.58.98-.78.41-.2.86-.3,1.32-.29.48,0,.9.08,1.27.23.37.15.68.36.93.64.25.27.44.61.57,1s.19.83.19,1.32ZM131.57,37.21c.02-.28-.01-.57-.09-.84-.07-.24-.18-.46-.34-.65-.15-.18-.35-.33-.57-.43-.25-.11-.52-.16-.79-.15-.26,0-.5.05-.71.15-.21.1-.4.24-.55.42-.16.2-.29.42-.38.66-.1.27-.16.55-.18.84h3.61,0ZM141.06,34.32l-1,6.86h-1.44l-.99-2.87-.2-.7-.23.74-.95,2.83h-1.4l-.99-6.86h1.16l.57,4.66.12,1.04.29-.91,1-3.08h.85l1.07,3.04.31.91.1-.96.53-4.7h1.18,0Z"/>
        <path id="Map" class="st5" d="M156.37,41.18h-1.19l-.18-5.57-.07-2.14-.42,1.25-1.32,3.56h-.84l-1.26-3.42-.42-1.38-.03,2.24-.16,5.48h-1.15l.44-8.93h1.44l1.2,3.36.39,1.14.38-1.14,1.26-3.36h1.48l.43,8.94h0ZM162.2,41.18l-.03-.92c-.37.37-.75.64-1.14.8-.39.16-.79.25-1.21.25-.39,0-.73-.05-1.01-.15-.26-.09-.49-.23-.69-.41-.18-.17-.31-.38-.4-.62-.09-.25-.13-.51-.13-.77,0-.69.26-1.23.77-1.62.51-.39,1.27-.58,2.27-.58h1.42v-.6c0-.41-.13-.73-.39-.97s-.66-.37-1.19-.37c-.39,0-.77.04-1.15.13s-.76.21-1.16.37v-1.07c.35-.13.72-.23,1.09-.3.21-.04.43-.08.64-.1.22-.02.45-.04.68-.04.41,0,.79.05,1.12.14.33.09.62.23.85.42s.41.42.53.7c.12.28.18.61.18,1v4.73h-1.07ZM162.07,38.06h-1.51c-.3,0-.55.03-.77.09s-.39.14-.53.25c-.14.11-.24.24-.3.39-.07.15-.1.32-.1.52,0,.13.02.26.06.38.04.12.11.23.2.32.09.09.21.17.35.22.15.05.32.08.53.08.27,0,.59-.08.94-.25.35-.17.73-.43,1.12-.79v-1.22ZM171.36,37.62c0,.61-.09,1.14-.26,1.6-.17.45-.41.83-.71,1.13-.3.3-.67.53-1.07.68-.41.15-.85.23-1.33.23-.22,0-.44-.01-.65-.03-.22-.02-.44-.06-.66-.12v2.87h-1.19v-9.67h1.06l.07,1.15c.34-.47.71-.8,1.09-.99.39-.19.81-.28,1.26-.28.39,0,.74.08,1.03.25.3.17.54.4.74.69.2.3.35.66.45,1.08.1.42.15.89.15,1.41h0ZM170.14,37.68c0-.36-.03-.69-.08-.99-.04-.27-.13-.53-.25-.77-.1-.2-.25-.37-.44-.5-.19-.12-.41-.19-.64-.18-.15,0-.3.02-.46.07-.17.06-.33.14-.48.24-.19.13-.37.28-.53.44-.21.22-.41.45-.59.69v3.33c.22.09.45.16.69.22.24.05.48.08.71.08.64,0,1.15-.22,1.51-.65.37-.43.55-1.09.55-1.97h0Z"/>
        <path id="_x28__x29__x3B_" class="st0" d="M177.3,44.05c-2.1-1.95-3.15-4.1-3.15-6.45,0-.55.06-1.1.17-1.65.11-.55.29-1.1.54-1.65.27-.58.6-1.14.98-1.65.41-.55.9-1.1,1.49-1.64l.69.7c-1.77,1.75-2.65,3.68-2.65,5.8,0,1.06.22,2.07.67,3.05.45.98,1.11,1.9,1.98,2.76l-.72.73ZM182.29,31c2.1,1.95,3.15,4.11,3.15,6.49,0,.49-.05,1-.15,1.53-.1.53-.27,1.07-.51,1.62-.26.59-.59,1.16-.97,1.68-.41.57-.92,1.14-1.54,1.72l-.69-.7c.89-.88,1.55-1.8,1.99-2.75.44-.96.66-1.96.66-3.01,0-2.17-.88-4.12-2.65-5.85l.72-.73h0ZM189.2,42.58c.23.01.46-.01.68-.06.2-.04.4-.12.58-.22.17-.1.3-.22.4-.36.1-.15.15-.32.15-.5,0-.16-.03-.32-.1-.46-.06-.12-.14-.23-.22-.33-.08-.1-.16-.21-.22-.32-.07-.14-.11-.3-.1-.46,0-.22.08-.42.22-.59.08-.09.18-.16.29-.21.28-.11.6-.11.88.02.15.07.28.17.39.3.11.14.2.31.27.51.07.2.1.45.1.72,0,.38-.07.74-.21,1.09-.14.35-.35.67-.62.93-.27.27-.62.48-1.03.64-.41.16-.89.24-1.44.24v-.94ZM191.34,34.19c.14,0,.28.03.4.09.25.11.45.31.56.56.06.13.09.26.09.4,0,.14-.03.28-.09.41-.06.12-.13.24-.23.33-.2.2-.46.31-.74.31-.15,0-.28-.03-.41-.08-.25-.11-.45-.31-.56-.56-.06-.13-.08-.27-.08-.41,0-.28.11-.54.31-.74.1-.1.21-.17.33-.23.13-.06.27-.09.41-.08h0Z"/>
        <path id="returnfunction" class="st4" d="M27.22,68.31h1.09l.03,1.26c.41-.49.81-.84,1.2-1.06.36-.21.77-.32,1.19-.33.71,0,1.25.23,1.62.69.37.46.54,1.15.51,2.05h-1.2c.01-.6-.07-1.04-.26-1.31-.19-.27-.47-.41-.83-.41-.16,0-.32.03-.48.08-.18.07-.35.16-.5.27-.19.15-.38.31-.54.48-.22.23-.42.46-.61.71v4.41h-1.2s0-6.86,0-6.86ZM40.44,71.38c0,.17,0,.31,0,.42,0,.11-.01.21-.02.32h-4.82c0,.7.2,1.24.59,1.62s.96.56,1.69.56c.2,0,.4,0,.6-.02.2-.02.39-.04.58-.06.19-.03.37-.06.54-.09.17-.03.33-.07.48-.11v.98c-.77.21-1.57.31-2.36.31-.59,0-1.09-.08-1.52-.24-.4-.14-.76-.38-1.04-.69-.28-.32-.49-.7-.6-1.12-.14-.49-.2-.99-.19-1.49,0-.48.07-.94.21-1.37.13-.41.34-.8.61-1.14.27-.33.59-.58.98-.78.41-.2.86-.3,1.32-.29.48,0,.9.08,1.27.23.37.15.68.36.93.64.25.28.44.61.57,1s.19.83.2,1.32ZM39.2,71.21c.02-.28-.01-.57-.09-.84-.07-.24-.18-.46-.34-.65-.15-.18-.35-.33-.57-.43-.25-.11-.52-.16-.79-.15-.26,0-.5.05-.71.15-.22.1-.4.24-.55.42-.16.2-.29.42-.38.66-.1.27-.16.55-.18.84h3.61,0ZM47.87,75.08c-.27.07-.55.12-.83.15-.29.03-.58.04-.88.04-.86,0-1.5-.19-1.93-.58-.42-.39-.63-.99-.63-1.79v-3.58h-1.92v-1h1.92v-1.88l1.19-.31v2.19h3.08v1h-3.08v3.49c0,.49.13.86.39,1.1s.65.37,1.16.37c.22,0,.46-.02.72-.05.26-.03.53-.09.81-.16,0,0,0,1.03,0,1.02ZM55.55,75.18h-1.07l-.04-1.11c-.18.21-.38.41-.58.59-.17.15-.35.27-.55.38-.17.09-.36.16-.55.2-.19.04-.39.06-.58.06-.71,0-1.24-.21-1.6-.62-.36-.42-.54-1.04-.54-1.88v-4.49h1.19v4.39c0,1.05.4,1.58,1.19,1.58.15,0,.29-.02.43-.06.14-.04.28-.12.44-.22s.32-.25.49-.43c.21-.22.41-.45.59-.69v-4.55h1.19s0,6.86,0,6.86ZM58.01,68.31h1.09l.03,1.26c.4-.49.81-.84,1.2-1.06.36-.21.77-.32,1.19-.33.71,0,1.25.23,1.62.69.37.46.54,1.15.51,2.05h-1.2c.01-.6-.07-1.04-.26-1.31-.19-.27-.47-.41-.83-.41-.16,0-.32.03-.48.08-.18.07-.35.16-.5.27-.19.15-.38.31-.54.48-.22.23-.42.46-.62.71v4.41h-1.2s0-6.86,0-6.86ZM65.43,68.31h1.06l.05,1.11c.2-.24.39-.43.58-.59.19-.16.37-.28.55-.38.17-.09.36-.16.55-.2.19-.04.38-.06.58-.06.71,0,1.24.21,1.6.63.36.42.54,1.04.54,1.88v4.48h-1.19v-4.38c0-.54-.1-.94-.3-1.19s-.5-.39-.9-.39c-.15,0-.29.02-.43.06-.16.05-.3.13-.43.22-.15.11-.31.25-.49.43-.17.18-.37.41-.59.68v4.55h-1.19s0-6.86,0-6.86ZM86.91,66.63c-.62-.13-1.16-.2-1.61-.2-1.07,0-1.61.56-1.61,1.68v1.2h3.01v.99h-3.01v4.87h-1.21v-4.87h-2.21v-.99h2.21v-1.13c0-1.83.95-2.74,2.86-2.74.47,0,1,.06,1.57.17v1.03h0ZM94.04,75.18h-1.07l-.04-1.11c-.18.21-.38.41-.58.59-.17.15-.35.27-.55.38-.17.09-.36.16-.55.2-.19.04-.39.06-.58.06-.71,0-1.24-.21-1.6-.62-.36-.42-.54-1.04-.54-1.88v-4.49h1.19v4.39c0,1.05.4,1.58,1.19,1.58.14,0,.29-.02.43-.06.14-.04.29-.12.44-.22.15-.11.32-.25.49-.43.21-.22.41-.45.59-.69v-4.55h1.19v6.86h0ZM96.22,68.32h1.06l.05,1.11c.2-.24.39-.43.58-.59.19-.16.37-.28.55-.38.17-.09.36-.16.55-.2.19-.04.38-.06.58-.06.71,0,1.24.21,1.6.63.36.42.54,1.04.54,1.88v4.48h-1.19v-4.38c0-.54-.1-.94-.3-1.19-.2-.26-.5-.39-.89-.39-.15,0-.29.02-.43.06-.16.05-.3.13-.43.22-.15.11-.31.25-.49.43-.18.18-.37.41-.59.68v4.55h-1.19s0-6.86,0-6.86ZM109.25,74.93c-.31.12-.63.21-.95.26-.33.06-.67.09-1.01.08-1.08,0-1.92-.29-2.5-.88-.59-.59-.88-1.45-.88-2.58,0-.54.08-1.03.25-1.48.17-.44.41-.82.71-1.13.31-.31.67-.56,1.09-.73.42-.17.89-.26,1.4-.26.36,0,.69.03,1,.08.31.05.61.13.89.25v1.13c-.29-.15-.59-.27-.91-.34-.31-.07-.63-.11-.95-.11-.31,0-.59.06-.86.17-.27.12-.51.28-.71.5-.21.23-.38.5-.49.8-.12.31-.18.67-.18,1.07,0,.83.2,1.45.61,1.86.4.41.96.62,1.68.62.63,0,1.26-.15,1.82-.44v1.11h0ZM117.14,75.08c-.27.07-.55.12-.83.15-.29.03-.58.04-.88.04-.86,0-1.5-.19-1.93-.58s-.64-.99-.64-1.79v-3.58h-1.92v-1h1.92v-1.89l1.19-.31v2.19h3.08v1h-3.08v3.49c0,.49.13.86.39,1.1.26.24.65.37,1.16.37.22,0,.46-.02.72-.05.26-.03.53-.09.81-.16v1.03ZM121.65,69.3h-2.03v-.99h3.23v5.87h2.04v.99h-5.5v-.99h2.25s0-4.89,0-4.89ZM122.06,65.44c.13,0,.26.02.37.07.11.05.21.12.3.2.18.18.27.41.27.66,0,.25-.1.49-.27.66-.08.09-.19.16-.3.2-.12.05-.24.07-.37.07-.13,0-.25-.02-.37-.07-.11-.05-.21-.12-.3-.2-.17-.18-.27-.42-.27-.66,0-.25.09-.49.27-.66.08-.09.19-.16.3-.2.12-.05.24-.07.37-.07h0ZM132.98,71.69c0,.5-.07.99-.22,1.47-.15.44-.37.83-.65,1.14-.29.32-.64.57-1.03.74-.44.18-.91.27-1.38.26-.49,0-.93-.08-1.32-.23-.38-.14-.72-.37-.99-.67-.28-.32-.5-.69-.62-1.1-.14-.44-.21-.94-.21-1.51,0-.53.07-1.02.23-1.46.15-.44.37-.82.65-1.13.29-.32.64-.57,1.03-.74.44-.18.91-.27,1.38-.26.49,0,.93.08,1.32.23.39.15.72.38.99.67.27.29.48.66.62,1.1.14.44.21.94.21,1.5ZM131.76,71.75c0-.42-.05-.79-.14-1.11-.08-.29-.21-.56-.4-.79-.17-.21-.39-.37-.63-.48-.26-.11-.55-.16-.83-.16-.36,0-.66.07-.91.21s-.46.32-.62.56c-.17.25-.29.52-.36.81-.08.32-.11.64-.11.97,0,.42.05.79.14,1.11.09.32.23.58.4.8.17.21.38.37.63.48.25.11.52.16.83.16.36,0,.66-.07.91-.21.25-.14.46-.32.62-.56.17-.25.29-.52.36-.81.08-.32.11-.65.11-.97ZM134.7,68.32h1.06l.05,1.11c.2-.24.39-.43.58-.59.19-.16.37-.28.55-.38.17-.09.36-.16.55-.2.19-.04.38-.06.58-.06.71,0,1.24.21,1.6.63.36.42.54,1.04.54,1.88v4.48h-1.19v-4.38c0-.54-.1-.94-.3-1.19-.2-.26-.5-.39-.9-.39-.15,0-.29.02-.43.06-.16.05-.3.13-.43.22-.15.11-.31.25-.49.43-.18.18-.37.41-.59.68v4.55h-1.19v-6.86h0Z"/>
        <path id="_x28_1" data-name="_x28_" class="st0" d="M146.51,78.05c-2.1-1.95-3.15-4.1-3.15-6.45,0-.55.06-1.1.17-1.65.11-.55.29-1.1.54-1.65.27-.58.6-1.14.98-1.65.41-.55.9-1.1,1.49-1.64l.69.7c-1.77,1.75-2.65,3.68-2.65,5.8,0,1.06.22,2.07.67,3.05.45.97,1.11,1.9,1.98,2.76l-.72.73Z"/>
        <path id="x" class="st5" d="M156.28,75.18h-1.58l-1.85-2.62-1.83,2.62h-1.54l2.66-3.45-2.54-3.42h1.52l1.8,2.64,1.77-2.64h1.47l-2.58,3.45,2.69,3.42Z"/>
        <path id="_x29__x7B_1" data-name="_x29__x7B_" class="st0" d="M159.2,65c2.1,1.95,3.15,4.11,3.15,6.49,0,.49-.05,1-.15,1.53-.1.53-.27,1.07-.51,1.62-.27.59-.59,1.16-.98,1.69-.41.57-.92,1.14-1.54,1.72l-.69-.7c.89-.88,1.55-1.8,1.99-2.76.44-.96.66-1.96.66-3.01,0-2.17-.88-4.12-2.65-5.85l.72-.73h0ZM178.23,77.98h-.51c-.88,0-1.53-.21-1.96-.62-.43-.41-.64-1.04-.64-1.88v-2.35c0-.2-.02-.4-.07-.6-.05-.17-.14-.32-.26-.44-.14-.13-.31-.23-.5-.28-.25-.07-.52-.1-.78-.1h-.29v-.95h.29c.33,0,.6-.03.81-.08.21-.05.37-.14.49-.25.12-.12.21-.26.25-.43.04-.17.07-.38.07-.62v-1.62c0-.38.05-.73.14-1.04.09-.31.24-.57.45-.79.21-.22.48-.38.81-.5.33-.12.74-.17,1.21-.17h.51v.96h-.4c-1.06,0-1.59.51-1.59,1.54v1.59c0,1.11-.48,1.74-1.44,1.88.97.1,1.46.72,1.46,1.87v2.34c0,1.04.52,1.56,1.57,1.56h.4v.96h0Z"/>
        <path id="if" class="st4" d="M44.67,86.3h-2.03v-.99h3.23v5.87h2.04v.99h-5.5v-.99h2.26s0-4.89,0-4.89ZM45.09,82.44c.13,0,.26.02.37.07.11.05.21.12.3.2.18.18.27.41.27.66,0,.25-.1.49-.27.66-.08.09-.19.16-.3.2-.12.05-.24.07-.37.07-.13,0-.25-.02-.37-.07-.11-.05-.21-.12-.3-.2-.17-.18-.27-.42-.27-.66,0-.25.09-.49.27-.66.08-.09.19-.16.3-.2.12-.05.24-.07.37-.07h0ZM56.12,83.63c-.62-.13-1.16-.2-1.61-.2-1.07,0-1.61.56-1.61,1.68v1.2h3.01v.99h-3.01v4.87h-1.21v-4.87h-2.21v-.99h2.21v-1.13c0-1.83.95-2.74,2.86-2.74.47,0,1,.06,1.57.17v1.03h0Z"/>
        <path id="_x28_2" data-name="_x28_" class="st0" d="M69.54,95.05c-2.1-1.95-3.15-4.1-3.15-6.45,0-.55.06-1.1.17-1.65.11-.55.29-1.1.54-1.65.27-.58.6-1.14.99-1.65.41-.55.9-1.1,1.49-1.64l.69.7c-1.77,1.75-2.65,3.68-2.65,5.8,0,1.06.22,2.07.67,3.05.45.97,1.11,1.89,1.98,2.76,0,0-.72.73-.72.73Z"/>
        <path id="cache1" data-name="cache" class="st5" d="M78.46,91.93c-.31.12-.63.21-.95.26-.33.06-.67.09-1.01.08-1.08,0-1.92-.29-2.51-.88-.59-.59-.88-1.45-.88-2.58,0-.54.08-1.03.25-1.48.17-.44.41-.82.71-1.14.31-.31.67-.56,1.09-.73.42-.17.89-.26,1.4-.26.36,0,.69.03,1,.07.31.05.61.13.89.25v1.14c-.29-.15-.59-.27-.91-.34-.31-.07-.63-.11-.95-.11-.31,0-.59.06-.86.18-.27.12-.51.28-.71.5-.21.23-.38.5-.49.8-.12.31-.18.67-.18,1.07,0,.83.2,1.45.6,1.86.4.41.96.62,1.68.62.63,0,1.26-.15,1.82-.44v1.11h0ZM85.23,92.18l-.03-.92c-.37.37-.75.64-1.14.8s-.79.25-1.21.25c-.39,0-.73-.05-1-.15-.26-.09-.49-.23-.69-.41-.18-.17-.31-.38-.4-.62-.09-.25-.13-.51-.13-.77,0-.69.26-1.23.77-1.62.51-.39,1.27-.58,2.27-.58h1.42v-.6c0-.41-.13-.73-.39-.97s-.66-.37-1.19-.37c-.39,0-.77.04-1.14.13s-.76.21-1.17.37v-1.07c.35-.13.72-.23,1.09-.3.21-.04.43-.08.64-.1.22-.03.45-.04.68-.04.42,0,.79.05,1.12.14.33.09.61.23.84.42s.41.42.53.7c.12.28.18.61.18,1v4.73h-1.07,0ZM85.1,89.06h-1.51c-.3,0-.55.03-.77.09s-.39.14-.53.25c-.14.11-.24.24-.3.39-.07.15-.1.32-.1.52,0,.13.02.26.06.38.04.12.11.23.2.32.09.09.21.17.36.22.15.05.32.08.53.08.27,0,.59-.08.94-.25.35-.17.73-.43,1.12-.79v-1.22h0ZM93.85,91.93c-.31.12-.63.21-.95.26-.33.06-.67.09-1.01.08-1.08,0-1.92-.29-2.51-.88-.58-.59-.88-1.45-.88-2.58,0-.54.08-1.03.25-1.48.17-.44.4-.82.71-1.14.31-.31.67-.56,1.09-.73.42-.17.89-.26,1.4-.26.36,0,.69.03,1,.07.31.05.61.13.89.25v1.14c-.29-.15-.59-.27-.91-.34-.31-.07-.63-.11-.95-.11-.31,0-.59.06-.86.18-.27.12-.51.28-.71.5-.21.23-.38.5-.49.8-.12.31-.18.67-.18,1.07,0,.83.2,1.45.61,1.86s.96.62,1.68.62c.63,0,1.26-.15,1.82-.44v1.11h0ZM101.73,92.18h-1.19v-4.38c0-.53-.1-.92-.3-1.19-.2-.26-.48-.39-.85-.39-.16,0-.31.02-.45.07-.16.05-.3.13-.43.22-.18.13-.34.28-.49.43-.18.18-.38.41-.61.68v4.55h-1.19v-9.66h1.19v2.8l-.04,1.08c.19-.22.37-.41.55-.56s.36-.28.54-.37.36-.16.55-.21c.19-.04.38-.06.58-.06.68,0,1.21.21,1.59.63s.56,1.04.56,1.88v4.48h0ZM109.71,88.39c0,.17,0,.31,0,.42,0,.11-.01.21-.02.32h-4.82c0,.7.2,1.24.59,1.62.39.38.96.56,1.69.56.2,0,.4,0,.6-.02s.39-.04.58-.07c.19-.03.37-.06.54-.09.17-.03.33-.07.47-.11v.98c-.77.21-1.57.31-2.36.31-.59,0-1.09-.08-1.52-.24-.4-.14-.76-.38-1.04-.69-.28-.32-.49-.7-.6-1.11-.14-.49-.2-.99-.19-1.49,0-.48.07-.94.21-1.37.13-.41.34-.8.61-1.14.27-.32.59-.58.98-.78.41-.2.86-.3,1.32-.29.48,0,.9.08,1.27.23.37.15.68.36.93.64.25.28.44.61.57,1s.19.83.19,1.32h0ZM108.47,88.21c.02-.28-.01-.57-.09-.84-.07-.24-.18-.46-.34-.65-.15-.18-.35-.33-.57-.43-.25-.11-.52-.16-.79-.15-.26,0-.5.05-.71.15-.21.1-.4.24-.55.42-.16.2-.29.42-.38.66-.1.27-.16.55-.18.84h3.61,0Z"/>
        <path id="_x2E_" class="st0" d="M114.31,90.03c.3,0,.59.12.8.33.1.11.18.23.24.37.06.14.09.29.09.45s-.03.3-.09.44c-.12.27-.33.49-.61.6-.14.06-.29.09-.44.09s-.31-.03-.44-.09c-.27-.12-.48-.33-.6-.6-.06-.14-.09-.29-.09-.44,0-.3.12-.59.33-.81.21-.22.5-.34.8-.34h0Z"/>
        <path id="has" class="st5" d="M124.82,92.18h-1.19v-4.38c0-.53-.1-.92-.3-1.19-.2-.26-.48-.39-.85-.39-.16,0-.31.02-.45.07-.16.05-.3.13-.43.22-.18.13-.34.28-.49.43-.18.18-.38.41-.61.68v4.55h-1.19v-9.66h1.19v2.8l-.04,1.08c.19-.22.37-.41.55-.56s.36-.28.54-.37.36-.16.55-.21c.19-.04.38-.06.58-.06.68,0,1.21.21,1.59.63.37.42.56,1.04.56,1.88v4.48h0ZM131.41,92.18l-.03-.92c-.37.37-.75.64-1.14.8-.39.16-.79.25-1.21.25-.39,0-.73-.05-1-.15-.26-.09-.49-.23-.69-.41-.18-.17-.31-.38-.4-.62-.09-.25-.13-.51-.13-.77,0-.69.26-1.23.77-1.62.51-.39,1.27-.58,2.27-.58h1.42v-.6c0-.41-.13-.73-.39-.97s-.66-.37-1.19-.37c-.39,0-.77.04-1.14.13s-.76.21-1.17.37v-1.07c.35-.13.72-.23,1.09-.3.21-.04.43-.08.64-.1.22-.03.45-.04.68-.04.41,0,.79.05,1.12.14.33.09.61.23.85.42s.41.42.53.7c.12.28.18.61.18,1v4.73h-1.07ZM131.28,89.06h-1.51c-.3,0-.55.03-.77.09s-.39.14-.53.25c-.14.11-.24.24-.3.39-.07.15-.1.32-.1.52,0,.13.02.26.06.38.04.12.11.23.2.32.09.09.21.17.36.22.15.05.32.08.53.08.27,0,.59-.08.94-.25.35-.17.72-.43,1.12-.79v-1.22h0ZM140.14,90.31c0,.43-.16.85-.46,1.16-.14.15-.31.28-.49.38-.19.11-.39.19-.6.26-.21.07-.43.12-.65.15-.22.03-.44.05-.66.05-.43,0-.85-.02-1.28-.06-.39-.04-.77-.11-1.14-.2v-1.09c.4.11.8.2,1.2.26.4.06.79.09,1.18.09.57,0,.99-.08,1.26-.23.27-.15.41-.38.41-.66,0-.11-.02-.23-.07-.33-.05-.11-.14-.21-.24-.28-.16-.12-.34-.21-.53-.28-.32-.12-.65-.23-.98-.33-.29-.08-.58-.19-.86-.31-.24-.11-.47-.25-.68-.41-.19-.15-.34-.34-.45-.56-.11-.24-.17-.5-.16-.76.01-.48.22-.94.59-1.26.21-.2.5-.36.87-.49.36-.13.82-.19,1.37-.19.27,0,.57.01.89.04.33.03.67.08,1.03.15v1.06c-.35-.09-.71-.15-1.06-.2-.29-.04-.58-.06-.87-.07-.3,0-.55.02-.75.07-.17.03-.34.1-.49.19-.11.07-.21.16-.27.28-.05.11-.08.23-.08.35,0,.12.02.24.07.33s.14.2.27.29c.13.09.31.19.54.28.23.09.54.19.91.3.4.12.75.24,1.03.37.28.13.5.28.68.43.17.16.3.34.37.54.07.2.11.43.11.68h0Z"/>
        <path id="_x28_3" data-name="_x28_" class="st0" d="M146.51,95.05c-2.1-1.95-3.15-4.1-3.15-6.45,0-.55.06-1.1.17-1.65.11-.55.29-1.1.54-1.65.27-.58.6-1.14.98-1.65.41-.55.9-1.1,1.49-1.64l.69.7c-1.77,1.75-2.65,3.68-2.65,5.8,0,1.06.22,2.07.67,3.05.45.97,1.11,1.89,1.98,2.76,0,0-.72.73-.72.73Z"/>
        <path id="x1" data-name="x" class="st5" d="M156.28,92.18h-1.58l-1.85-2.62-1.83,2.62h-1.54l2.66-3.45-2.54-3.42h1.52l1.8,2.64,1.77-2.64h1.47l-2.58,3.45,2.69,3.42Z"/>
        <path id="_x29__x29__x7B_" class="st0" d="M159.2,82c2.1,1.95,3.15,4.11,3.15,6.49,0,.49-.05,1-.15,1.53-.1.53-.27,1.07-.51,1.62-.27.59-.59,1.16-.98,1.68-.41.57-.92,1.14-1.54,1.72l-.69-.7c.89-.88,1.55-1.8,1.99-2.75.44-.96.66-1.96.66-3.01,0-2.17-.88-4.12-2.65-5.85l.72-.73h0ZM166.89,82c2.1,1.95,3.15,4.11,3.15,6.49,0,.49-.05,1-.15,1.53-.1.53-.27,1.07-.51,1.62-.26.59-.59,1.16-.97,1.68-.41.57-.92,1.14-1.54,1.72l-.69-.7c.89-.88,1.55-1.8,1.99-2.75.44-.96.66-1.96.66-3.01,0-2.17-.88-4.12-2.65-5.85l.72-.73ZM185.92,94.98h-.51c-.88,0-1.53-.21-1.96-.62-.43-.41-.64-1.04-.64-1.88v-2.35c0-.2-.02-.4-.07-.6-.05-.17-.14-.32-.26-.44-.14-.13-.31-.23-.5-.28-.25-.07-.52-.1-.78-.1h-.29v-.95h.29c.33,0,.6-.03.81-.08.21-.06.37-.14.49-.25.12-.12.21-.26.25-.43.05-.17.07-.38.07-.61v-1.62c0-.38.05-.73.14-1.04.09-.31.24-.57.45-.79.21-.22.48-.38.81-.5.33-.12.73-.17,1.21-.17h.51v.96h-.4c-1.06,0-1.59.51-1.59,1.54v1.59c0,1.11-.48,1.74-1.44,1.88.97.1,1.46.72,1.46,1.87v2.34c0,1.04.52,1.57,1.57,1.57h.4v.96h0Z"/>
        <path id="return" class="st4" d="M58.01,102.32h1.09l.03,1.26c.4-.49.81-.84,1.2-1.06.36-.21.77-.32,1.19-.33.71,0,1.25.23,1.62.69.37.46.54,1.14.51,2.05h-1.2c.01-.6-.07-1.04-.26-1.31-.19-.27-.47-.41-.83-.41-.16,0-.32.03-.48.08-.18.07-.35.16-.5.27-.19.15-.38.31-.54.48-.22.23-.42.46-.62.71v4.41h-1.2v-6.86h0ZM71.22,105.39c0,.17,0,.31,0,.42,0,.11-.01.21-.02.32h-4.82c0,.7.2,1.24.59,1.62.39.38.96.56,1.69.56.2,0,.4,0,.6-.02.2-.02.39-.04.58-.07.19-.03.37-.06.54-.09.17-.03.33-.07.47-.11v.98c-.77.21-1.57.31-2.37.31-.59,0-1.09-.08-1.52-.24-.4-.14-.76-.38-1.04-.69-.28-.32-.49-.7-.6-1.11-.14-.49-.2-.99-.19-1.49,0-.48.07-.94.21-1.37.13-.41.34-.8.61-1.14.27-.32.59-.58.98-.78.41-.2.86-.3,1.32-.29.48,0,.9.08,1.27.23.37.15.68.36.93.64.25.28.44.61.57,1s.19.83.19,1.32h0ZM69.99,105.21c.02-.28-.01-.57-.09-.84-.07-.24-.18-.46-.34-.65-.15-.18-.35-.33-.57-.43-.25-.11-.52-.16-.79-.15-.26,0-.5.05-.71.15-.22.1-.4.24-.55.42-.16.2-.29.42-.38.66-.1.27-.16.55-.18.84h3.61,0ZM78.65,109.08c-.27.07-.55.12-.83.15-.29.03-.58.04-.88.04-.86,0-1.5-.19-1.93-.58-.42-.39-.64-.99-.64-1.79v-3.58h-1.92v-1h1.92v-1.89l1.19-.31v2.19h3.08v1h-3.08v3.49c0,.49.13.86.39,1.1.26.24.65.37,1.16.37.22,0,.46-.02.72-.05.26-.03.53-.09.81-.16v1.03h0ZM86.34,109.18h-1.07l-.04-1.11c-.18.21-.38.41-.58.59-.17.15-.35.27-.55.38-.17.09-.36.16-.55.2-.19.04-.39.06-.58.06-.71,0-1.24-.21-1.6-.62-.36-.42-.54-1.04-.54-1.88v-4.49h1.19v4.39c0,1.05.4,1.58,1.19,1.58.14,0,.29-.02.43-.07.14-.04.29-.12.44-.22s.32-.25.49-.43c.21-.22.41-.45.59-.69v-4.55h1.19s0,6.86,0,6.86ZM88.8,102.32h1.09l.03,1.26c.4-.49.81-.84,1.2-1.06.36-.21.77-.32,1.19-.33.71,0,1.25.23,1.62.69.37.46.54,1.14.51,2.05h-1.2c.01-.6-.07-1.04-.26-1.31-.19-.27-.47-.41-.83-.41-.16,0-.32.03-.48.08-.18.07-.35.16-.5.27-.19.15-.38.31-.54.48-.22.23-.42.46-.61.71v4.41h-1.2v-6.86h0ZM96.22,102.32h1.06l.05,1.11c.2-.24.39-.43.58-.59.19-.16.37-.28.55-.38.17-.09.36-.16.55-.2.19-.04.38-.06.58-.06.71,0,1.24.21,1.6.63.36.42.54,1.04.54,1.88v4.48h-1.19v-4.38c0-.54-.1-.94-.3-1.19-.2-.26-.5-.39-.89-.39-.15,0-.29.02-.43.07-.16.05-.3.13-.43.22-.15.11-.31.25-.49.43-.18.18-.37.41-.59.68v4.55h-1.19v-6.86h0Z"/>
        <path id="cache2" data-name="cache" class="st5" d="M116.94,108.93c-.31.12-.63.21-.95.26-.33.06-.67.09-1.01.08-1.08,0-1.92-.29-2.5-.88-.59-.59-.88-1.45-.88-2.58,0-.54.08-1.03.25-1.48.17-.44.4-.82.71-1.14.31-.31.67-.56,1.09-.73.42-.17.89-.26,1.4-.26.36,0,.69.03,1,.07.31.05.61.13.89.25v1.14c-.29-.15-.59-.27-.9-.34-.31-.07-.63-.11-.95-.11-.31,0-.59.06-.86.18-.27.12-.51.28-.71.5-.21.23-.38.5-.49.8-.12.31-.18.67-.18,1.07,0,.83.2,1.45.61,1.86.4.41.96.62,1.68.62.63,0,1.26-.15,1.82-.44v1.11h0ZM123.72,109.18l-.03-.92c-.37.37-.75.64-1.14.8s-.79.25-1.21.25c-.39,0-.73-.05-1-.15-.26-.09-.49-.23-.69-.41-.18-.17-.31-.38-.4-.62-.09-.25-.13-.51-.13-.77,0-.69.26-1.23.77-1.62.51-.39,1.27-.58,2.27-.58h1.42v-.6c0-.41-.13-.73-.39-.97s-.66-.37-1.19-.37c-.39,0-.77.04-1.14.13s-.76.21-1.17.37v-1.07c.35-.13.72-.23,1.09-.3.21-.04.43-.08.64-.1.22-.03.45-.04.68-.04.42,0,.79.05,1.12.14.33.09.61.23.84.42s.41.42.53.7c.12.28.18.61.18,1v4.73h-1.07ZM123.59,106.06h-1.51c-.3,0-.55.03-.77.09-.21.06-.39.14-.53.25-.14.11-.24.24-.3.39-.07.15-.1.32-.1.52,0,.13.02.26.06.38.04.12.11.23.2.32.09.09.21.17.36.22.15.05.32.08.53.08.27,0,.59-.08.94-.25.35-.17.73-.43,1.12-.79v-1.22h0ZM132.34,108.93c-.31.12-.63.21-.95.26-.33.06-.67.09-1.01.08-1.08,0-1.92-.29-2.5-.88-.59-.59-.88-1.45-.88-2.58,0-.54.08-1.03.25-1.48s.41-.82.71-1.14c.31-.31.67-.56,1.09-.73.42-.17.89-.26,1.4-.26.36,0,.69.03,1,.07.31.05.61.13.89.25v1.14c-.29-.15-.59-.27-.91-.34-.31-.07-.63-.11-.95-.11-.31,0-.59.06-.86.18-.27.12-.51.28-.71.5-.21.23-.38.5-.49.8-.12.31-.18.67-.18,1.07,0,.83.2,1.45.61,1.86.4.41.96.62,1.68.62.63,0,1.26-.15,1.82-.44v1.11h0ZM140.22,109.18h-1.19v-4.38c0-.53-.1-.92-.3-1.19-.2-.26-.48-.39-.85-.39-.16,0-.31.02-.45.07-.16.05-.3.13-.43.22-.18.13-.34.28-.49.43-.18.18-.38.41-.61.68v4.55h-1.19v-9.66h1.19v2.8l-.04,1.08c.19-.22.37-.41.55-.56s.36-.28.54-.37.36-.16.55-.21c.19-.04.38-.06.58-.06.68,0,1.21.21,1.59.63.37.42.56,1.04.56,1.88v4.48h0ZM148.2,105.39c0,.17,0,.31,0,.42,0,.11-.01.21-.02.32h-4.82c0,.7.2,1.24.59,1.62.39.38.96.56,1.7.56.2,0,.4,0,.6-.02.2-.02.4-.04.58-.07.19-.03.37-.06.54-.09.17-.03.33-.07.48-.11v.98c-.77.21-1.57.31-2.37.31-.59,0-1.09-.08-1.52-.24-.4-.14-.76-.38-1.04-.69-.28-.32-.49-.7-.6-1.11-.14-.49-.2-.99-.2-1.49,0-.48.07-.94.21-1.37.13-.41.34-.8.61-1.14.27-.32.59-.58.98-.78.41-.2.86-.3,1.32-.29.48,0,.9.08,1.27.23.37.15.68.36.93.64.25.28.45.61.57,1,.13.39.2.83.2,1.32h0ZM146.96,105.21c.02-.28-.01-.57-.09-.84-.07-.24-.18-.46-.34-.65-.16-.18-.35-.33-.57-.43-.25-.11-.52-.16-.79-.15-.26,0-.5.05-.71.15s-.4.24-.55.42c-.16.2-.29.42-.38.66-.1.27-.16.55-.18.84h3.61Z"/>
        <path id="_x2E_1" data-name="_x2E_" class="st0" d="M152.8,107.03c.3,0,.59.12.8.33.1.11.18.23.24.37.06.14.09.29.09.45s-.03.3-.09.44c-.12.27-.33.49-.6.6-.14.06-.29.09-.44.09s-.31-.03-.44-.09c-.27-.12-.49-.33-.6-.6-.06-.14-.09-.29-.09-.44,0-.16.03-.31.09-.45.06-.14.14-.26.24-.37.21-.22.5-.34.8-.33h0Z"/>
        <path id="get" class="st4" d="M162.74,103.29c.13.16.23.35.3.56.07.21.11.44.11.69,0,.36-.07.68-.2.97s-.31.55-.55.76c-.25.22-.54.38-.85.49-.33.12-.69.17-1.09.17-.29,0-.56-.03-.81-.09-.21-.05-.41-.12-.59-.23-.09.13-.16.25-.22.36-.06.12-.09.25-.09.38,0,.17.08.32.25.43.17.11.39.18.66.18l1.8.07c.34.01.66.05.95.13.29.08.54.19.74.33.21.15.37.33.49.54.12.21.18.46.18.75,0,.31-.07.6-.2.87-.14.29-.35.53-.61.72-.27.21-.62.37-1.05.5s-.93.18-1.51.18-1.03-.04-1.42-.13c-.39-.09-.71-.21-.96-.37-.23-.13-.42-.33-.55-.56-.12-.22-.17-.47-.17-.71,0-.33.08-.62.23-.88.15-.25.39-.49.72-.72-.22-.1-.4-.27-.52-.47-.11-.19-.16-.41-.16-.63,0-.3.07-.57.21-.81.14-.25.3-.48.49-.7-.08-.1-.16-.2-.23-.31-.14-.21-.23-.45-.28-.7-.03-.15-.04-.31-.04-.46,0-.36.07-.68.19-.97.13-.29.31-.55.55-.76.24-.21.52-.37.85-.49.33-.12.7-.18,1.1-.18.17,0,.33.01.49.04.15.02.29.05.41.09h2.49v.97h-1.1ZM158.61,110.17c0,.32.17.56.51.71.34.15.81.22,1.41.22.38,0,.7-.04.95-.1.26-.07.46-.16.62-.27s.27-.24.34-.38c.07-.14.1-.29.1-.44,0-.28-.11-.48-.34-.62-.23-.13-.58-.21-1.05-.23l-1.79-.06c-.15.1-.27.2-.37.29-.09.09-.17.18-.23.29-.05.09-.09.19-.12.29-.02.1-.03.2-.04.3ZM158.97,104.56c0,.22.04.42.11.6.07.18.18.34.31.46s.29.23.47.3c.18.07.38.11.6.11.24,0,.45-.04.63-.12.18-.08.34-.19.46-.32.13-.14.22-.29.29-.47.07-.18.1-.36.1-.55,0-.22-.04-.42-.11-.6-.07-.18-.17-.33-.31-.46-.14-.13-.29-.23-.47-.3-.18-.07-.38-.11-.6-.11-.24,0-.45.04-.63.12-.18.08-.34.19-.46.32-.12.13-.22.29-.29.47-.07.18-.1.36-.1.55h0ZM171.29,105.39c0,.17,0,.31,0,.42,0,.11-.01.21-.02.32h-4.82c0,.7.2,1.24.59,1.62s.96.56,1.7.56c.2,0,.4,0,.6-.02.2-.02.39-.04.58-.07.19-.03.37-.06.54-.09.17-.03.33-.07.48-.11v.98c-.77.21-1.57.31-2.37.31-.59,0-1.09-.08-1.52-.24-.4-.14-.76-.38-1.04-.69-.28-.32-.49-.7-.6-1.11-.14-.49-.2-.99-.2-1.49,0-.48.07-.94.21-1.37.13-.41.34-.8.61-1.14.27-.32.59-.58.98-.78.41-.2.86-.3,1.32-.29.48,0,.9.08,1.27.23.37.15.68.36.93.64.25.28.44.61.57,1s.2.83.2,1.32h0ZM170.05,105.21c.02-.28-.01-.57-.09-.84-.07-.24-.18-.46-.34-.65-.16-.18-.35-.33-.57-.43-.25-.11-.52-.16-.79-.15-.26,0-.5.05-.71.15s-.4.24-.55.42c-.16.2-.29.42-.38.66-.1.27-.16.55-.18.84h3.61ZM178.72,109.08c-.27.07-.55.12-.83.15-.29.03-.58.04-.88.04-.86,0-1.5-.19-1.93-.58s-.64-.99-.64-1.79v-3.58h-1.92v-1h1.92v-1.89l1.19-.31v2.19h3.08v1h-3.08v3.49c0,.49.13.86.39,1.1.26.24.65.37,1.16.37.22,0,.46-.02.72-.05.26-.03.53-.09.81-.16v1.03h0Z"/>
        <path id="_x28_4" data-name="_x28_" class="st0" d="M184.99,112.05c-2.1-1.95-3.15-4.1-3.15-6.45,0-.55.06-1.1.17-1.65.11-.55.29-1.1.54-1.65.27-.58.6-1.14.99-1.65.41-.55.9-1.1,1.49-1.64l.69.7c-1.77,1.75-2.65,3.68-2.65,5.8,0,1.06.22,2.07.67,3.05.45.97,1.11,1.89,1.98,2.76l-.72.73h0Z"/>
        <path id="x2" data-name="x" class="st5" d="M194.77,109.18h-1.58l-1.85-2.62-1.83,2.62h-1.54l2.66-3.45-2.54-3.42h1.52l1.8,2.64,1.77-2.64h1.47l-2.58,3.45,2.69,3.42Z"/>
        <path id="_x29__x3B__x7D_" class="st0" d="M197.68,99c2.1,1.95,3.15,4.11,3.15,6.49,0,.49-.05,1-.15,1.53-.1.53-.27,1.07-.51,1.62-.26.59-.59,1.16-.97,1.68-.41.57-.92,1.14-1.54,1.72l-.69-.7c.89-.88,1.55-1.8,1.99-2.75.44-.96.65-1.96.65-3.01,0-2.17-.88-4.12-2.65-5.85l.72-.73ZM204.59,110.58c.23.01.46-.01.68-.06.2-.04.4-.12.58-.22.17-.1.3-.22.4-.36.1-.15.15-.32.15-.5,0-.16-.03-.32-.1-.46-.06-.12-.14-.23-.22-.33-.08-.1-.16-.21-.22-.32-.07-.14-.11-.3-.1-.46,0-.22.08-.42.22-.59.08-.09.18-.16.29-.21.28-.11.6-.11.88.02.15.07.28.17.39.3.11.14.2.31.27.51.07.21.1.45.1.72,0,.38-.07.74-.21,1.09-.14.35-.35.67-.62.93-.28.27-.62.48-1.03.64-.41.16-.89.24-1.44.24v-.94ZM206.73,102.19c.14,0,.28.03.4.09.25.11.45.31.56.56.06.13.09.26.09.4,0,.14-.03.28-.09.41-.06.12-.13.24-.23.33-.2.2-.46.31-.74.31-.15,0-.28-.03-.41-.08-.25-.11-.45-.31-.56-.56-.06-.13-.08-.27-.08-.41,0-.28.11-.54.31-.74.1-.1.21-.17.33-.23.13-.06.27-.09.41-.08ZM42.81,116.28h.5c.88,0,1.53.21,1.96.62.43.41.64,1.04.64,1.88v1.58c0,.22.03.42.08.6.05.18.14.32.26.44.13.12.29.21.5.28s.47.1.79.1h.29v.95h-.29c-.33,0-.6.03-.82.08-.18.04-.35.13-.5.25-.12.12-.21.26-.25.43-.05.2-.07.41-.07.61v2.39c0,.38-.05.73-.14,1.04-.09.31-.24.57-.44.79-.22.23-.5.4-.81.5-.33.11-.74.17-1.22.17h-.5v-.96h.41c1.05,0,1.58-.51,1.58-1.54v-2.36c0-1.11.48-1.74,1.44-1.87-.97-.11-1.46-.73-1.46-1.88v-1.57c0-1.04-.52-1.57-1.56-1.57h-.41s0-.96,0-.96Z"/>
        <path id="letresult_x3D_func_x28_x_x29__x3B_" class="st6" d="M44.67,151.5h-2.03v-.98h3.23v8.67h2.04v.99h-5.5v-.99h2.26v-7.69h0ZM55.83,156.38c0,.17,0,.31,0,.42,0,.11-.01.21-.02.32h-4.82c0,.7.2,1.24.59,1.62.39.38.96.56,1.7.56.2,0,.4,0,.6-.02.2-.02.39-.04.58-.07.19-.03.37-.06.54-.09.17-.03.33-.07.47-.11v.98c-.77.21-1.57.31-2.37.31-.59,0-1.09-.08-1.52-.24-.4-.14-.76-.38-1.04-.69-.28-.32-.49-.7-.6-1.12-.14-.49-.2-.99-.19-1.49,0-.48.07-.94.21-1.37.13-.41.34-.8.61-1.14.27-.32.59-.58.98-.78.41-.2.86-.3,1.32-.29.48,0,.9.08,1.27.23.37.15.68.36.93.64.25.27.44.61.57,1s.19.84.19,1.32h0ZM54.59,156.21c.02-.28-.01-.57-.09-.84-.07-.24-.18-.46-.34-.65-.16-.18-.35-.33-.57-.43-.25-.11-.52-.16-.79-.15-.26,0-.5.05-.71.15-.21.1-.4.24-.55.42-.16.2-.29.42-.38.66-.1.27-.16.55-.18.84h3.61ZM63.26,160.08c-.27.07-.55.12-.83.15-.29.03-.58.04-.88.04-.86,0-1.5-.19-1.93-.58s-.64-.99-.64-1.79v-3.58h-1.92v-1h1.92v-1.89l1.19-.31v2.19h3.08v1h-3.08v3.49c0,.49.13.86.39,1.1.26.24.65.37,1.16.37.22,0,.46-.02.72-.05s.53-.09.81-.16c0,0,0,1.02,0,1.02ZM73.41,153.31h1.09l.03,1.26c.41-.49.81-.84,1.2-1.06.36-.21.77-.32,1.19-.33.71,0,1.25.23,1.62.69.37.46.54,1.15.51,2.05h-1.2c.01-.6-.07-1.04-.26-1.31-.19-.27-.47-.41-.83-.41-.16,0-.32.03-.48.09-.18.07-.35.16-.5.27-.19.15-.38.31-.54.48-.22.23-.42.46-.62.71v4.41h-1.2v-6.86h0ZM86.62,156.38c0,.17,0,.31,0,.42,0,.11-.01.21-.02.32h-4.82c0,.7.2,1.24.59,1.62.39.38.96.56,1.7.56.2,0,.4,0,.6-.02.2-.02.39-.04.58-.07.19-.03.37-.06.54-.09.17-.03.33-.07.47-.11v.98c-.77.21-1.57.31-2.36.31-.59,0-1.09-.08-1.52-.24-.4-.14-.76-.38-1.04-.69-.28-.32-.49-.7-.6-1.12-.14-.49-.2-.99-.19-1.49,0-.48.07-.94.21-1.37.13-.41.34-.8.61-1.14.27-.32.59-.58.98-.78.41-.2.86-.3,1.32-.29.48,0,.9.08,1.27.23.37.15.68.36.93.64.25.27.44.61.57,1s.19.84.19,1.32h0ZM85.38,156.21c.02-.28-.01-.57-.09-.84-.07-.24-.18-.46-.34-.65-.16-.18-.35-.33-.57-.43-.25-.11-.52-.16-.79-.15-.26,0-.5.05-.71.15-.21.1-.4.24-.55.42-.16.2-.29.42-.38.66-.1.27-.16.55-.18.84h3.61,0ZM93.95,158.31c0,.43-.16.85-.46,1.16-.14.15-.31.28-.49.38-.19.11-.39.19-.6.26-.21.07-.43.12-.65.15-.22.03-.44.05-.66.05-.43,0-.86-.02-1.28-.06-.39-.04-.77-.11-1.14-.2v-1.09c.4.11.8.2,1.2.26.4.06.79.09,1.18.09.57,0,.99-.08,1.26-.23.27-.15.41-.38.41-.66,0-.11-.02-.23-.06-.33-.05-.11-.14-.21-.24-.28-.16-.12-.34-.21-.53-.28-.32-.12-.65-.23-.98-.33-.29-.08-.58-.19-.86-.31-.24-.11-.47-.25-.68-.41-.19-.15-.34-.34-.45-.56-.11-.24-.17-.5-.16-.76.01-.48.22-.94.59-1.26.21-.2.5-.36.87-.49.36-.13.82-.2,1.37-.2.27,0,.57.01.9.04.33.03.67.08,1.03.15v1.06c-.35-.09-.71-.15-1.06-.2-.29-.04-.58-.06-.87-.07-.3,0-.54.02-.75.07-.17.03-.34.1-.49.19-.11.07-.21.16-.27.28-.05.11-.08.23-.08.35,0,.12.02.24.07.34.05.1.14.2.27.29.13.09.31.19.54.28.23.09.54.2.91.3.4.12.75.24,1.03.37s.5.27.68.43c.17.16.3.34.37.54.08.2.11.43.11.68h0ZM101.73,160.18h-1.07l-.04-1.11c-.18.21-.37.41-.58.59-.17.15-.35.27-.55.38-.17.09-.36.16-.55.2-.19.04-.39.06-.58.06-.71,0-1.24-.21-1.6-.62-.36-.41-.54-1.04-.54-1.88v-4.49h1.19v4.39c0,1.05.4,1.58,1.19,1.58.15,0,.29-.02.43-.07.14-.04.29-.12.44-.23.15-.11.32-.25.49-.43.21-.22.4-.45.59-.69v-4.55h1.19v6.86h0ZM106.25,151.5h-2.03v-.98h3.23v8.67h2.04v.99h-5.5v-.99h2.26v-7.69h0ZM117.14,160.08c-.27.07-.55.12-.83.15-.29.03-.58.04-.88.04-.86,0-1.5-.19-1.93-.58s-.64-.99-.64-1.79v-3.58h-1.92v-1h1.92v-1.89l1.19-.31v2.19h3.08v1h-3.08v3.49c0,.49.13.86.39,1.1.26.24.65.37,1.16.37.22,0,.46-.02.72-.05s.53-.09.81-.16v1.02ZM132.7,155.76h-5.88v-1.01h5.88v1.01h0ZM132.7,158.14h-5.88v-1.01h5.88v1.01h0ZM148.49,151.63c-.62-.13-1.16-.2-1.61-.2-1.07,0-1.61.56-1.61,1.68v1.2h3.01v.99h-3.01v4.87h-1.21v-4.87h-2.21v-.99h2.21v-1.13c0-1.83.95-2.74,2.86-2.74.47,0,1,.05,1.57.16v1.02h0ZM155.61,160.18h-1.07l-.04-1.11c-.18.21-.38.41-.59.59-.17.15-.35.27-.55.38-.17.09-.36.16-.55.2-.19.04-.39.06-.59.06-.71,0-1.24-.21-1.6-.62-.36-.41-.54-1.04-.54-1.88v-4.49h1.19v4.39c0,1.05.4,1.58,1.19,1.58.15,0,.29-.02.43-.07.14-.04.29-.12.44-.23.15-.11.32-.25.49-.43.21-.22.41-.45.59-.69v-4.55h1.19v6.86h0ZM157.79,153.31h1.06l.05,1.11c.2-.24.4-.43.58-.59.19-.16.37-.28.55-.38.17-.09.36-.16.55-.2.19-.04.38-.06.58-.06.71,0,1.24.21,1.6.63.36.42.54,1.04.54,1.88v4.48h-1.19v-4.38c0-.54-.1-.94-.3-1.19-.2-.26-.5-.39-.9-.39-.15,0-.29.02-.43.07-.16.05-.3.13-.43.23-.15.11-.31.25-.49.43-.18.18-.37.41-.59.68v4.55h-1.19v-6.86h0ZM170.82,159.92c-.31.12-.63.21-.95.26-.33.06-.67.09-1.01.09-1.08,0-1.92-.29-2.51-.88-.59-.59-.88-1.45-.88-2.58,0-.54.08-1.03.25-1.48.17-.44.41-.82.71-1.13.31-.31.67-.56,1.09-.73.42-.17.89-.26,1.4-.26.36,0,.69.02,1,.07s.61.13.89.25v1.13c-.29-.15-.59-.27-.91-.34-.31-.07-.63-.11-.95-.11-.3,0-.59.06-.87.18-.27.12-.51.28-.71.5-.21.23-.38.5-.49.8-.12.31-.18.67-.18,1.07,0,.83.2,1.45.6,1.86.4.41.96.62,1.68.62.63,0,1.26-.15,1.82-.44v1.11h0ZM177.3,163.05c-2.1-1.95-3.15-4.1-3.15-6.45,0-.55.06-1.1.17-1.65.11-.55.29-1.1.54-1.65.27-.58.6-1.14.98-1.65.41-.55.9-1.1,1.49-1.64l.69.7c-1.77,1.75-2.65,3.68-2.65,5.8,0,1.06.22,2.07.67,3.05.45.98,1.11,1.9,1.98,2.76l-.72.73h0ZM187.07,160.18h-1.58l-1.85-2.62-1.83,2.62h-1.54l2.66-3.45-2.54-3.42h1.52l1.8,2.64,1.77-2.64h1.47l-2.58,3.45,2.69,3.42h0ZM189.99,150c2.1,1.95,3.15,4.11,3.15,6.49,0,.49-.05,1-.15,1.53-.1.53-.27,1.07-.51,1.62-.26.59-.59,1.16-.97,1.68-.41.57-.92,1.14-1.54,1.72l-.69-.7c.89-.88,1.55-1.8,1.99-2.76.44-.96.66-1.96.66-3.01,0-2.17-.88-4.12-2.65-5.85l.72-.73h0ZM196.9,161.58c.23,0,.46-.01.68-.06.2-.04.4-.12.58-.22.17-.1.3-.22.4-.37.1-.15.15-.32.15-.5,0-.16-.03-.32-.1-.46-.06-.12-.14-.23-.22-.33-.08-.1-.16-.21-.22-.32-.07-.14-.11-.3-.1-.46,0-.22.08-.42.22-.59.08-.09.18-.16.29-.21.28-.11.6-.11.88.02.15.07.28.17.39.3.11.14.2.31.27.51.07.21.1.45.1.72,0,.38-.07.74-.21,1.09-.14.35-.35.67-.62.93-.28.27-.62.48-1.03.64-.41.16-.89.24-1.44.24v-.94h0ZM199.04,153.19c.14,0,.28.03.4.09.25.11.45.31.56.56.06.13.09.26.09.4,0,.14-.03.28-.09.41-.06.12-.13.24-.23.33-.2.2-.46.31-.74.31-.15,0-.28-.03-.41-.08-.25-.11-.45-.31-.56-.56-.06-.13-.08-.27-.08-.41,0-.28.11-.54.31-.74.1-.1.21-.17.33-.23.13-.06.27-.09.41-.09h0Z"/>
        <path id="cache3" data-name="cache" class="st5" d="M47.67,193.93c-.31.12-.63.21-.95.26-.33.06-.67.09-1.01.09-1.08,0-1.92-.29-2.51-.88-.59-.59-.88-1.45-.88-2.58,0-.54.08-1.03.25-1.48.17-.44.41-.82.71-1.13.31-.31.67-.56,1.09-.73.42-.17.89-.26,1.4-.26.36,0,.69.02,1,.07s.61.13.89.25v1.13c-.29-.15-.59-.27-.91-.34-.31-.07-.63-.11-.95-.11-.31,0-.59.06-.87.18s-.51.28-.72.5c-.21.23-.38.5-.49.8-.12.31-.18.67-.18,1.07,0,.83.2,1.45.6,1.86.4.41.96.62,1.68.62.63,0,1.26-.15,1.82-.44v1.11h0ZM54.44,194.18l-.03-.92c-.37.37-.75.64-1.14.8-.38.16-.79.25-1.21.25-.39,0-.73-.05-1-.15-.26-.09-.49-.23-.69-.41-.18-.17-.31-.38-.4-.62-.09-.25-.13-.51-.13-.77,0-.69.26-1.23.77-1.62.51-.39,1.27-.58,2.27-.58h1.42v-.6c0-.41-.13-.73-.39-.97s-.66-.37-1.19-.37c-.39,0-.77.04-1.15.13s-.76.21-1.17.37v-1.07c.35-.13.72-.23,1.09-.3.21-.04.43-.08.64-.1.22-.02.45-.04.68-.04.42,0,.79.05,1.12.14.33.09.61.23.84.42.23.19.41.42.53.7.12.28.19.62.19,1v4.73h-1.07,0ZM54.31,191.06h-1.51c-.3,0-.55.03-.77.09s-.39.14-.53.25c-.14.11-.24.24-.3.39-.07.15-.1.32-.1.52,0,.13.02.26.06.38.04.12.11.23.2.32.09.09.21.17.36.22.15.05.32.08.53.08.27,0,.59-.08.94-.25.35-.17.73-.43,1.12-.79v-1.22h0ZM63.06,193.93c-.31.12-.63.21-.95.26-.33.06-.67.09-1.01.09-1.08,0-1.92-.29-2.51-.88-.58-.59-.88-1.45-.88-2.58,0-.54.08-1.03.25-1.48.17-.44.4-.82.71-1.13.31-.31.67-.56,1.09-.73.42-.17.89-.26,1.4-.26.35,0,.69.02,1,.07s.61.13.89.25v1.13c-.29-.15-.59-.27-.91-.34-.31-.07-.63-.11-.95-.11-.31,0-.59.06-.87.18-.27.12-.51.28-.71.5-.21.23-.38.5-.49.8-.12.31-.18.67-.18,1.07,0,.83.2,1.45.6,1.86.4.41.96.62,1.68.62.63,0,1.26-.15,1.82-.44v1.11h0ZM70.94,194.18h-1.19v-4.38c0-.53-.1-.92-.3-1.19-.2-.26-.48-.39-.85-.39-.16,0-.31.02-.45.07-.16.05-.3.13-.43.23-.18.13-.34.28-.49.43-.18.18-.38.41-.62.68v4.55h-1.19v-9.66h1.19v2.8l-.04,1.08c.19-.22.37-.41.55-.56s.36-.28.54-.37c.18-.1.36-.16.55-.21s.38-.06.58-.06c.68,0,1.21.21,1.59.63.37.42.56,1.04.56,1.88,0,0,0,4.48,0,4.48ZM78.92,190.38c0,.17,0,.31,0,.42,0,.11-.01.21-.02.32h-4.82c0,.7.2,1.24.59,1.62.39.38.96.56,1.7.56.2,0,.4,0,.6-.02.2-.02.39-.04.58-.07.19-.03.37-.06.54-.09.17-.03.33-.07.47-.11v.98c-.77.21-1.57.31-2.36.31-.59,0-1.09-.08-1.52-.24-.4-.14-.76-.38-1.04-.69-.28-.32-.49-.7-.6-1.12-.14-.49-.2-.99-.19-1.49,0-.48.07-.94.21-1.37.13-.41.34-.8.61-1.14.27-.32.59-.58.98-.78.41-.2.86-.3,1.32-.29.48,0,.9.08,1.27.23s.68.36.93.64c.25.27.44.61.57,1s.19.84.19,1.32h0ZM77.68,190.21c.02-.28-.01-.57-.09-.84-.07-.24-.18-.46-.34-.65-.15-.18-.35-.33-.57-.43-.25-.11-.52-.16-.79-.15-.26,0-.5.05-.71.15-.22.1-.4.24-.55.42-.16.2-.29.42-.38.66-.1.27-.16.55-.18.84h3.61,0Z"/>
        <path id="_x2E_2" data-name="_x2E_" class="st0" d="M83.52,192.02c.3,0,.59.12.8.34.1.1.18.23.24.37.06.14.09.29.09.45s-.03.3-.09.44c-.12.27-.33.49-.61.6-.14.06-.29.09-.44.09s-.31-.03-.44-.09c-.27-.12-.48-.33-.6-.6-.06-.14-.09-.29-.09-.44,0-.3.12-.59.33-.81.21-.22.5-.34.8-.34Z"/>
        <path id="set" class="st4" d="M93.95,192.31c0,.43-.16.85-.46,1.16-.14.15-.31.28-.49.38-.19.11-.39.19-.6.26-.21.07-.43.12-.65.15-.22.03-.44.05-.66.05-.43,0-.86-.02-1.28-.06-.39-.04-.77-.11-1.14-.2v-1.09c.4.11.8.2,1.2.26.4.06.79.09,1.18.09.57,0,.99-.08,1.26-.23.27-.15.41-.38.41-.66,0-.11-.02-.23-.06-.33-.05-.11-.14-.21-.24-.28-.16-.12-.34-.21-.53-.28-.32-.12-.65-.23-.98-.33-.29-.08-.58-.19-.86-.31-.24-.11-.47-.25-.68-.41-.19-.15-.34-.34-.45-.56-.11-.24-.17-.5-.16-.76.01-.48.22-.94.59-1.26.21-.2.5-.36.87-.49.36-.13.82-.2,1.37-.2.27,0,.57.01.9.04.33.03.67.08,1.03.15v1.06c-.35-.09-.71-.15-1.06-.2-.29-.04-.58-.06-.87-.07-.3,0-.54.02-.75.07-.17.03-.34.1-.49.19-.11.07-.21.16-.27.28-.05.11-.08.23-.08.35,0,.12.02.24.07.34.05.1.14.2.27.29.13.09.31.19.54.28.23.09.54.2.91.3.4.12.75.24,1.03.37s.5.27.68.43c.17.16.3.34.37.54.08.2.11.43.11.68h0ZM102.01,190.38c0,.17,0,.31,0,.42,0,.11-.01.21-.02.32h-4.82c0,.7.2,1.24.59,1.62.39.38.96.56,1.69.56.2,0,.4,0,.6-.02.2-.02.39-.04.58-.07.19-.03.37-.06.54-.09.17-.03.33-.07.48-.11v.98c-.77.21-1.57.31-2.36.31-.59,0-1.09-.08-1.52-.24-.4-.14-.76-.38-1.04-.69-.28-.32-.49-.7-.6-1.12-.14-.49-.2-.99-.19-1.49,0-.48.07-.94.21-1.37.13-.41.34-.8.61-1.14.27-.32.59-.58.98-.78.41-.2.86-.3,1.32-.29.48,0,.9.08,1.27.23.37.15.68.36.93.64.25.27.44.61.57,1s.19.84.19,1.32h0ZM100.78,190.21c.02-.28-.01-.57-.09-.84-.07-.24-.18-.46-.34-.65-.15-.18-.35-.33-.57-.43-.25-.11-.52-.16-.79-.15-.26,0-.5.05-.71.15-.21.1-.4.24-.55.42-.16.2-.29.42-.38.66-.1.27-.16.55-.18.84h3.61,0ZM109.44,194.08c-.27.07-.55.12-.83.15-.29.03-.58.04-.88.04-.86,0-1.5-.19-1.93-.58-.42-.39-.64-.99-.64-1.79v-3.58h-1.92v-1h1.92v-1.89l1.19-.31v2.19h3.08v1h-3.08v3.49c0,.49.13.86.39,1.1s.65.37,1.16.37c.22,0,.46-.02.72-.05s.53-.09.81-.16v1.02h0Z"/>
        <path id="_x28_5" data-name="_x28_" class="st0" d="M115.72,197.05c-2.1-1.95-3.15-4.1-3.15-6.45,0-.55.06-1.1.17-1.65.11-.55.29-1.1.54-1.65.27-.58.6-1.14.98-1.65.41-.55.9-1.1,1.49-1.64l.69.7c-1.77,1.75-2.65,3.68-2.65,5.8,0,1.06.22,2.07.67,3.05.45.98,1.11,1.9,1.98,2.76l-.72.73h0Z"/>
        <path id="x3" data-name="x" class="st5" d="M125.5,194.18h-1.58l-1.85-2.62-1.83,2.62h-1.54l2.66-3.45-2.54-3.42h1.53l1.81,2.64,1.77-2.64h1.47l-2.58,3.45,2.69,3.42Z"/>
        <path id="_x2C_" class="st0" d="M127.54,195.58c.23,0,.46-.01.68-.06.2-.04.4-.12.58-.22.17-.1.3-.22.4-.37.1-.15.15-.32.15-.5,0-.16-.03-.32-.1-.46-.06-.12-.14-.23-.22-.33-.08-.1-.16-.21-.22-.32-.07-.14-.11-.3-.1-.46,0-.22.08-.42.22-.59.08-.09.18-.16.29-.21.28-.11.6-.11.88.02.15.07.28.17.39.3s.2.31.27.51c.07.21.1.45.1.72,0,.38-.07.74-.21,1.09-.14.35-.35.67-.62.93-.28.27-.62.48-1.03.64-.41.16-.89.24-1.44.24v-.94h0Z"/>
        <path id="result" class="st5" d="M142.68,187.32h1.09l.03,1.26c.4-.49.8-.84,1.2-1.06.36-.21.77-.32,1.19-.33.71,0,1.25.23,1.62.69.37.46.54,1.15.51,2.05h-1.2c.01-.6-.07-1.04-.26-1.31-.19-.27-.47-.41-.83-.41-.16,0-.32.03-.48.09-.18.07-.35.16-.5.27-.19.15-.38.31-.54.48-.22.23-.42.46-.62.71v4.41h-1.2v-6.86h0ZM155.89,190.39c0,.17,0,.31,0,.42,0,.11-.01.21-.02.32h-4.82c0,.7.2,1.24.59,1.62.39.38.96.56,1.7.56.2,0,.4,0,.6-.02.2-.02.39-.04.58-.07.19-.03.37-.06.54-.09.17-.03.33-.07.48-.11v.98c-.77.21-1.57.31-2.37.31-.59,0-1.09-.08-1.52-.24-.4-.14-.76-.38-1.04-.69-.28-.32-.49-.7-.6-1.12-.14-.49-.2-.99-.2-1.49,0-.48.07-.94.21-1.37.13-.41.34-.8.61-1.14.27-.32.59-.58.98-.78.41-.2.86-.3,1.32-.29.48,0,.9.08,1.27.23.37.15.68.36.93.64.25.27.45.61.57,1,.13.39.2.84.2,1.32h0ZM154.66,190.21c.02-.28-.01-.57-.09-.84-.07-.24-.18-.46-.34-.65-.15-.18-.35-.33-.57-.43-.25-.11-.52-.16-.79-.15-.26,0-.5.05-.71.15-.21.1-.4.24-.55.42-.16.2-.29.42-.38.66-.1.27-.16.55-.18.84h3.61,0ZM163.23,192.31c0,.43-.16.85-.46,1.16-.14.15-.31.28-.49.38-.19.11-.39.19-.6.26-.21.07-.43.12-.65.15-.22.03-.44.05-.66.05-.43,0-.86-.02-1.28-.06-.39-.04-.77-.11-1.15-.2v-1.09c.4.11.8.2,1.2.26.4.06.79.09,1.18.09.57,0,.99-.08,1.26-.23.27-.15.41-.38.41-.66,0-.11-.02-.23-.07-.33-.05-.11-.14-.21-.24-.28-.16-.12-.34-.21-.53-.28-.32-.12-.65-.23-.98-.33-.29-.08-.58-.19-.86-.31-.24-.11-.47-.25-.68-.41-.19-.15-.34-.34-.45-.56-.11-.24-.17-.5-.16-.76.01-.48.22-.94.59-1.26.21-.2.5-.36.87-.49.37-.13.82-.2,1.37-.2.27,0,.57.01.9.04s.67.08,1.02.15v1.06c-.35-.09-.71-.15-1.06-.2-.29-.04-.58-.06-.87-.07-.3,0-.55.02-.75.07-.17.03-.34.1-.49.19-.11.07-.21.16-.27.28-.05.11-.08.23-.08.35,0,.12.02.24.07.34s.14.2.27.29c.13.09.31.19.54.28.23.09.54.2.91.3.41.12.75.24,1.02.37s.5.27.68.43c.17.16.3.34.37.54s.11.43.11.68h0ZM171.01,194.18h-1.07l-.04-1.11c-.18.21-.38.41-.59.59-.17.15-.35.27-.55.38-.17.09-.36.16-.55.2-.19.04-.39.06-.59.06-.71,0-1.24-.21-1.6-.62-.36-.41-.54-1.04-.54-1.88v-4.49h1.19v4.39c0,1.05.4,1.58,1.19,1.58.15,0,.29-.02.43-.07.14-.04.29-.12.44-.23.15-.11.32-.25.49-.43.21-.22.41-.45.59-.69v-4.55h1.19v6.86h0ZM175.53,185.5h-2.03v-.98h3.23v8.67h2.04v.99h-5.5v-.99h2.26v-7.69h0ZM186.42,194.08c-.27.07-.55.12-.83.15-.29.03-.58.04-.88.04-.86,0-1.5-.19-1.93-.58s-.63-.99-.63-1.79v-3.58h-1.92v-1h1.92v-1.89l1.19-.31v2.19h3.08v1h-3.08v3.49c0,.49.13.86.39,1.1.26.24.65.37,1.16.37.22,0,.46-.02.72-.05.26-.03.53-.09.81-.16v1.02h0Z"/>
        <path id="_x29__x3B_" class="st0" d="M189.99,184c2.1,1.95,3.15,4.11,3.15,6.49,0,.49-.05,1-.15,1.53-.1.53-.27,1.07-.51,1.62-.26.59-.59,1.16-.97,1.68-.41.57-.92,1.14-1.54,1.72l-.69-.7c.89-.88,1.55-1.8,1.99-2.76.44-.96.66-1.96.66-3.01,0-2.17-.88-4.12-2.65-5.85l.72-.73h0ZM196.9,195.58c.23,0,.46-.01.68-.06.2-.04.4-.12.58-.22.17-.1.3-.22.4-.37.1-.15.15-.32.15-.5,0-.16-.03-.32-.1-.46-.06-.12-.14-.23-.22-.33-.08-.1-.16-.21-.22-.32-.07-.14-.11-.3-.1-.46,0-.22.08-.42.22-.59.08-.09.18-.16.29-.21.28-.11.6-.11.88.02.15.07.28.17.39.3.11.14.2.31.27.51.07.21.1.45.1.72,0,.38-.07.74-.21,1.09-.14.35-.35.67-.62.93-.28.27-.62.48-1.03.64-.41.16-.89.24-1.44.24v-.94h0ZM199.04,187.19c.14,0,.28.03.4.09.25.11.45.31.56.56.06.13.09.26.09.4,0,.14-.03.28-.09.41-.06.12-.13.24-.23.33-.2.2-.46.31-.74.31-.15,0-.28-.03-.41-.08-.25-.11-.45-.31-.56-.56-.06-.13-.08-.27-.08-.41,0-.28.11-.54.31-.74.1-.1.21-.17.33-.23.13-.06.27-.09.41-.09h0Z"/>
        <path id="return1" data-name="return" class="st4" d="M42.62,204.32h1.09l.03,1.26c.41-.49.81-.84,1.2-1.06.36-.21.77-.32,1.19-.33.71,0,1.25.23,1.62.69.37.46.54,1.15.51,2.05h-1.2c.01-.6-.07-1.04-.26-1.31-.19-.27-.47-.41-.83-.41-.16,0-.32.03-.48.09-.18.07-.35.16-.5.27-.19.15-.38.31-.54.48-.22.23-.42.46-.62.71v4.41h-1.2v-6.86h0ZM55.83,207.39c0,.17,0,.31,0,.42,0,.11-.01.21-.02.32h-4.82c0,.7.2,1.24.59,1.62.39.38.96.56,1.7.56.2,0,.4,0,.6-.02.2-.02.39-.04.58-.07.19-.03.37-.06.54-.09.17-.03.33-.07.47-.11v.98c-.77.21-1.57.31-2.37.31-.59,0-1.09-.08-1.52-.24-.4-.14-.76-.38-1.04-.69-.28-.32-.49-.7-.6-1.12-.14-.49-.2-.99-.19-1.49,0-.48.07-.94.21-1.37.13-.41.34-.8.61-1.14.27-.32.59-.58.98-.78.41-.2.86-.3,1.32-.29.48,0,.9.08,1.27.23.37.15.68.36.93.64.25.27.44.61.57,1s.19.84.19,1.32h0ZM54.59,207.21c.02-.28-.01-.57-.09-.84-.07-.24-.18-.46-.34-.65-.16-.18-.35-.33-.57-.43-.25-.11-.52-.16-.79-.15-.26,0-.5.05-.71.15-.21.1-.4.24-.55.42-.16.2-.29.42-.38.66-.1.27-.16.55-.18.84h3.61ZM63.26,211.08c-.27.07-.55.12-.83.15-.29.03-.58.04-.88.04-.86,0-1.5-.19-1.93-.58s-.64-.99-.64-1.79v-3.58h-1.92v-1h1.92v-1.89l1.19-.31v2.19h3.08v1h-3.08v3.49c0,.49.13.86.39,1.1.26.24.65.37,1.16.37.22,0,.46-.02.72-.05s.53-.09.81-.16c0,0,0,1.02,0,1.02ZM70.94,211.18h-1.07l-.04-1.11c-.18.21-.38.41-.58.59-.17.15-.35.27-.55.38-.17.09-.36.16-.55.2-.19.04-.39.06-.58.06-.71,0-1.24-.21-1.6-.62-.36-.41-.54-1.04-.54-1.88v-4.49h1.19v4.39c0,1.05.4,1.58,1.19,1.58.15,0,.29-.02.43-.07.14-.04.28-.12.44-.23.15-.11.32-.25.49-.43.21-.22.4-.45.59-.69v-4.55h1.19v6.86h0ZM73.4,204.32h1.09l.03,1.26c.41-.49.81-.84,1.2-1.06.36-.21.77-.32,1.19-.33.71,0,1.25.23,1.62.69.37.46.54,1.15.51,2.05h-1.2c.01-.6-.07-1.04-.26-1.31-.19-.27-.47-.41-.83-.41-.16,0-.32.03-.48.09-.18.07-.35.16-.5.27-.19.15-.38.31-.54.48-.22.23-.42.46-.62.71v4.41h-1.2v-6.86h0ZM80.82,204.32h1.06l.05,1.11c.2-.24.39-.43.58-.59.19-.16.37-.28.55-.38.17-.09.36-.16.55-.2.19-.04.38-.06.58-.06.71,0,1.24.21,1.6.63.36.42.54,1.04.54,1.88v4.48h-1.19v-4.38c0-.54-.1-.94-.3-1.19-.2-.26-.5-.39-.9-.39-.15,0-.29.02-.43.07-.16.05-.3.13-.43.23-.15.11-.31.25-.49.43-.18.18-.37.41-.59.68v4.55h-1.19v-6.86h0Z"/>
        <path id="result1" data-name="result" class="st5" d="M96.5,204.32h1.09l.03,1.26c.41-.49.81-.84,1.2-1.06.36-.21.77-.32,1.19-.33.71,0,1.25.23,1.62.69.37.46.54,1.15.51,2.05h-1.2c.01-.6-.07-1.04-.26-1.31-.19-.27-.47-.41-.83-.41-.16,0-.32.03-.48.09-.18.07-.35.16-.5.27-.19.15-.38.31-.54.48-.22.23-.42.46-.61.71v4.41h-1.2v-6.86h0ZM109.71,207.39c0,.17,0,.31,0,.42,0,.11-.01.21-.02.32h-4.82c0,.7.2,1.24.59,1.62.39.38.96.56,1.69.56.2,0,.4,0,.6-.02s.39-.04.58-.07c.19-.03.37-.06.54-.09.17-.03.33-.07.47-.11v.98c-.77.21-1.57.31-2.36.31-.59,0-1.09-.08-1.52-.24-.4-.14-.76-.38-1.04-.69-.28-.32-.49-.7-.6-1.12-.14-.49-.2-.99-.19-1.49,0-.48.07-.94.21-1.37.13-.41.34-.8.61-1.14.27-.32.59-.58.98-.78.41-.2.86-.3,1.32-.29.48,0,.9.08,1.27.23.37.15.68.36.93.64.25.27.44.61.57,1s.19.84.19,1.32h0ZM108.47,207.21c.02-.28-.01-.57-.09-.84-.07-.24-.18-.46-.34-.65-.15-.18-.35-.33-.57-.43-.25-.11-.52-.16-.79-.15-.26,0-.5.05-.71.15-.21.1-.4.24-.55.42-.16.2-.29.42-.38.66-.1.27-.16.55-.18.84h3.61,0ZM117.05,209.31c0,.43-.16.85-.46,1.16-.14.15-.31.28-.49.38-.19.11-.39.19-.6.26-.21.07-.43.12-.65.15-.22.03-.44.05-.66.05-.43,0-.86-.02-1.28-.06-.39-.04-.77-.11-1.14-.2v-1.09c.4.11.8.2,1.2.26.4.06.79.09,1.18.09.57,0,.99-.08,1.26-.23.27-.15.41-.38.41-.66,0-.11-.02-.23-.07-.33-.05-.11-.13-.21-.24-.28-.16-.12-.34-.21-.53-.28-.32-.12-.65-.23-.98-.33-.29-.08-.58-.19-.86-.31-.24-.11-.47-.25-.68-.41-.19-.15-.34-.34-.45-.56-.11-.24-.17-.5-.16-.76.01-.48.22-.94.59-1.26.21-.2.5-.36.87-.49.36-.13.82-.2,1.37-.2.27,0,.57.01.89.04.33.03.67.08,1.03.15v1.06c-.35-.09-.71-.15-1.06-.2-.29-.04-.58-.06-.87-.07-.3,0-.55.02-.75.07-.17.03-.34.1-.49.19-.11.07-.21.16-.27.28-.05.11-.08.23-.08.35,0,.12.02.24.07.34s.14.2.27.29c.13.09.31.19.54.28.23.09.54.2.91.3.4.12.75.24,1.03.37s.5.27.68.43c.17.16.3.34.37.54.07.2.11.43.11.68h0ZM124.83,211.18h-1.07l-.04-1.11c-.18.21-.38.41-.58.59-.17.15-.35.27-.55.38-.17.09-.36.16-.55.2-.19.04-.39.06-.58.06-.71,0-1.24-.21-1.6-.62-.36-.41-.54-1.04-.54-1.88v-4.49h1.19v4.39c0,1.05.4,1.58,1.19,1.58.14,0,.29-.02.43-.07.14-.04.29-.12.44-.23.15-.11.32-.25.49-.43.21-.22.41-.45.59-.69v-4.55h1.19v6.86h0ZM129.34,202.5h-2.03v-.98h3.23v8.67h2.04v.99h-5.5v-.99h2.26v-7.69h0ZM140.23,211.08c-.27.07-.55.12-.84.15-.29.03-.58.04-.88.04-.86,0-1.5-.19-1.93-.58s-.64-.99-.64-1.79v-3.58h-1.92v-1h1.92v-1.89l1.19-.31v2.19h3.08v1h-3.08v3.49c0,.49.13.86.39,1.1.26.24.65.37,1.16.37.22,0,.46-.02.72-.05s.53-.09.81-.16v1.02h0Z"/>
        <path id="_x3B__x7D__x3B__x7D_" class="st0" d="M143.02,212.58c.23,0,.46-.01.68-.06.2-.04.4-.12.58-.22.17-.1.3-.22.4-.37.1-.15.15-.32.15-.5,0-.16-.03-.32-.1-.46-.06-.12-.14-.23-.22-.33-.08-.1-.16-.21-.22-.32-.07-.14-.11-.3-.1-.46,0-.22.08-.42.22-.59.08-.09.18-.16.29-.21.28-.11.6-.11.88.02.15.07.28.17.39.3.11.14.2.31.27.51.07.21.1.45.1.72,0,.38-.07.74-.21,1.09-.14.35-.35.67-.62.93-.28.27-.62.48-1.03.64-.41.16-.89.24-1.44.24v-.94h0ZM145.16,204.19c.14,0,.27.03.4.09.25.11.45.31.56.56.06.13.09.26.09.4,0,.14-.03.28-.09.41-.06.12-.13.24-.23.33-.2.2-.46.31-.74.31-.15,0-.28-.03-.41-.08-.25-.11-.45-.31-.56-.56-.06-.13-.08-.27-.08-.41,0-.28.11-.54.31-.74.1-.1.21-.17.33-.23.13-.06.27-.09.41-.09h0ZM27.41,218.28h.51c.88,0,1.53.21,1.96.62.43.41.64,1.04.64,1.88v1.58c0,.22.03.42.08.6.05.18.14.32.26.44.12.12.29.21.5.28.21.06.47.1.79.1h.29v.95h-.29c-.33,0-.6.03-.82.08-.18.04-.35.13-.5.25-.12.12-.21.26-.25.43-.05.2-.07.41-.07.62v2.39c0,.38-.05.73-.14,1.04s-.24.57-.44.79c-.22.23-.5.4-.81.5-.33.12-.74.17-1.22.17h-.51v-.96h.41c1.05,0,1.58-.51,1.58-1.54v-2.37c0-1.11.48-1.74,1.44-1.87-.97-.1-1.46-.73-1.46-1.88v-1.57c0-1.04-.52-1.57-1.57-1.57h-.41s0-.96,0-.96ZM35.25,229.58c.23,0,.46-.01.68-.06.2-.04.4-.12.58-.22.17-.1.3-.22.4-.37.1-.15.15-.32.15-.5,0-.16-.03-.32-.1-.46-.06-.12-.14-.23-.22-.33-.08-.1-.16-.21-.22-.32-.07-.14-.11-.3-.1-.46,0-.22.08-.42.22-.59.08-.09.18-.16.29-.21.28-.11.6-.11.88.02.15.07.28.17.39.3s.2.31.27.51c.07.21.1.45.1.72,0,.38-.07.74-.21,1.09-.14.35-.35.67-.62.93-.28.27-.62.48-1.03.64-.41.16-.89.24-1.44.24v-.94h0ZM37.39,221.19c.14,0,.28.03.4.09.25.11.45.31.56.56.06.13.09.26.08.4,0,.14-.03.28-.08.41-.06.12-.13.24-.23.33-.2.2-.46.31-.74.31-.15,0-.28-.03-.41-.08-.25-.11-.45-.31-.56-.56-.06-.13-.08-.27-.08-.41,0-.28.11-.54.31-.74.1-.1.21-.17.33-.23.13-.06.27-.09.41-.09h0ZM12.02,235.28h.5c.88,0,1.53.21,1.96.62.43.41.64,1.04.64,1.88v1.58c0,.22.03.42.07.6.05.18.14.32.26.44.13.12.29.21.5.28.21.06.47.1.79.1h.29v.95h-.29c-.33,0-.61.03-.82.08-.18.04-.35.13-.5.25-.12.12-.21.26-.25.43-.05.2-.07.41-.07.62v2.39c0,.38-.05.73-.14,1.04s-.24.57-.44.79c-.22.23-.5.4-.81.5-.33.12-.74.17-1.22.17h-.51v-.96h.41c1.05,0,1.58-.51,1.58-1.54v-2.37c0-1.11.48-1.74,1.44-1.87-.97-.1-1.46-.73-1.46-1.88v-1.57c0-1.04-.52-1.57-1.57-1.57h-.41s0-.96,0-.96Z"/>
      </g>
      <g id="Line-Copy-5-_x2B_-Line-Copy-4-_x2B_-Line-Copy-3">
        <path id="Line-Copy-5" class="st3" d="M223.5,69.62s46.38,0,46.38,71.38-46.38,71.38-46.38,71.38"/>
      </g>
      <g id="wrapper" class="st1">
        <text class="st2" transform="translate(265 75)"><tspan x="0" y="0">wrapper</tspan></text>
      </g>
      <g id="around-the-function" class="st1">
        <text class="st2" transform="translate(282 160)"><tspan x="0" y="0">omkring funktionen</tspan></text>
      </g>
      <path id="Line" class="st6" d="M229.5,147.5v8h33v3h-33v8l-19-9.5,19-9.5Z"/>
    </g>
  </g>
</svg>